<?xml version="1.0" encoding="UTF-8" standalone="no"?>
<!-- Created with Inkscape (http://www.inkscape.org/) -->

<svg
   xmlns:dc="http://purl.org/dc/elements/1.1/"
   xmlns:cc="http://creativecommons.org/ns#"
   xmlns:rdf="http://www.w3.org/1999/02/22-rdf-syntax-ns#"
   xmlns:svg="http://www.w3.org/2000/svg"
   xmlns="http://www.w3.org/2000/svg"
   xmlns:sodipodi="http://sodipodi.sourceforge.net/DTD/sodipodi-0.dtd"
   xmlns:inkscape="http://www.inkscape.org/namespaces/inkscape"
   width="744.09448819"
   height="1052.3622047"
   id="svg2"
   sodipodi:version="0.32"
   inkscape:version="0.48.2 r9819"
   sodipodi:docname="sage_logo_newsvg.svg"
   inkscape:output_extension="org.inkscape.output.svg.inkscape"
   version="1.1">
  <sodipodi:namedview
     id="base"
     pagecolor="#ffffff"
     bordercolor="#666666"
     borderopacity="1.0"
     gridtolerance="10000"
     guidetolerance="10"
     objecttolerance="10"
     inkscape:pageopacity="0.0"
     inkscape:pageshadow="2"
     inkscape:zoom="1.2450986"
     inkscape:cx="505.43727"
     inkscape:cy="684.13633"
     inkscape:document-units="px"
     inkscape:current-layer="layer1"
     showgrid="false"
     inkscape:window-width="1786"
     inkscape:window-height="987"
     inkscape:window-x="132"
     inkscape:window-y="64"
     showguides="true"
     inkscape:guide-bbox="true"
     inkscape:window-maximized="0" />
  <defs
     id="defs4" />
  <metadata
     id="metadata7">
    <rdf:RDF>
      <cc:Work
         rdf:about="">
        <dc:format>image/svg+xml</dc:format>
        <dc:type
           rdf:resource="http://purl.org/dc/dcmitype/StillImage" />
        <dc:title></dc:title>
      </cc:Work>
    </rdf:RDF>
  </metadata>
  <g
     id="layer1"
     inkscape:groupmode="layer"
     inkscape:label="Layer 1">
    <g
       id="g3993">
      <rect
         ry="11.531985"
         rx="11.531984"
         y="253.78876"
         x="100.8642"
         height="130"
         width="500"
         id="rect3430"
         style="opacity:0.98999999;fill:#7f7fff;fill-opacity:1;stroke:none;stroke-width:2;stroke-linecap:square;stroke-linejoin:round;stroke-miterlimit:4;stroke-dasharray:none;stroke-dashoffset:0;stroke-opacity:1"
         inkscape:export-xdpi="90"
         inkscape:export-ydpi="90" />
      <g
         id="g3432"
         transform="matrix(0.7759764,0,0,0.7759764,-1035.2282,-1486.6449)">
        <path
           transform="matrix(0.9672595,0,0,0.9672595,235.69886,548.04605)"
           d="m 1332.2546,1792.4095 c 0,4.0459 -3.2798,7.3257 -7.3256,7.3257 -4.0459,0 -7.3257,-3.2798 -7.3257,-7.3257 0,-4.0458 3.2798,-7.3256 7.3257,-7.3256 4.0458,0 7.3256,3.2798 7.3256,7.3256 z"
           sodipodi:ry="7.3256478"
           sodipodi:rx="7.3256478"
           sodipodi:cy="1792.4095"
           sodipodi:cx="1324.929"
           id="path3434"
           style="opacity:0.98999999;fill:#ffffff;fill-opacity:1;stroke:none;stroke-width:1;stroke-linecap:square;stroke-linejoin:round;stroke-miterlimit:4;stroke-dasharray:none;stroke-dashoffset:0;stroke-opacity:1"
           sodipodi:type="arc" />
        <path
           sodipodi:type="arc"
           style="opacity:0.98999999;fill:#ffffff;fill-opacity:1;stroke:none;stroke-width:1;stroke-linecap:square;stroke-linejoin:round;stroke-miterlimit:4;stroke-dasharray:none;stroke-dashoffset:0;stroke-opacity:1"
           id="path3436"
           sodipodi:cx="1324.929"
           sodipodi:cy="1792.4095"
           sodipodi:rx="7.3256478"
           sodipodi:ry="7.3256478"
           d="m 1332.2546,1792.4095 c 0,4.0459 -3.2798,7.3257 -7.3256,7.3257 -4.0459,0 -7.3257,-3.2798 -7.3257,-7.3257 0,-4.0458 3.2798,-7.3256 7.3257,-7.3256 4.0458,0 7.3256,3.2798 7.3256,7.3256 z"
           transform="matrix(0.9672595,0,0,0.9672595,308.74604,539.35166)" />
        <path
           transform="matrix(1.2053547,0,0,1.2053547,-25.196551,182.19849)"
           d="m 1332.2546,1792.4095 c 0,4.0459 -3.2798,7.3257 -7.3256,7.3257 -4.0459,0 -7.3257,-3.2798 -7.3257,-7.3257 0,-4.0458 3.2798,-7.3256 7.3257,-7.3256 4.0458,0 7.3256,3.2798 7.3256,7.3256 z"
           sodipodi:ry="7.3256478"
           sodipodi:rx="7.3256478"
           sodipodi:cy="1792.4095"
           sodipodi:cx="1324.929"
           id="path3438"
           style="opacity:0.98999999;fill:#ffffff;fill-opacity:1;stroke:none;stroke-width:1;stroke-linecap:square;stroke-linejoin:round;stroke-miterlimit:4;stroke-dasharray:none;stroke-dashoffset:0;stroke-opacity:1"
           sodipodi:type="arc" />
        <path
           transform="matrix(0.7953719,0,0,0.7953719,449.34462,925.45441)"
           d="m 1332.2546,1792.4095 c 0,4.0459 -3.2798,7.3257 -7.3256,7.3257 -4.0459,0 -7.3257,-3.2798 -7.3257,-7.3257 0,-4.0458 3.2798,-7.3256 7.3257,-7.3256 4.0458,0 7.3256,3.2798 7.3256,7.3256 z"
           sodipodi:ry="7.3256478"
           sodipodi:rx="7.3256478"
           sodipodi:cy="1792.4095"
           sodipodi:cx="1324.929"
           id="path3440"
           style="opacity:0.98999999;fill:#ffffff;fill-opacity:1;stroke:none;stroke-width:1;stroke-linecap:square;stroke-linejoin:round;stroke-miterlimit:4;stroke-dasharray:none;stroke-dashoffset:0;stroke-opacity:1"
           sodipodi:type="arc" />
        <path
           sodipodi:type="arc"
           style="opacity:0.98999999;fill:#ffffff;fill-opacity:1;stroke:none;stroke-width:1;stroke-linecap:square;stroke-linejoin:round;stroke-miterlimit:4;stroke-dasharray:none;stroke-dashoffset:0;stroke-opacity:1"
           id="path3442"
           sodipodi:cx="1324.929"
           sodipodi:cy="1792.4095"
           sodipodi:rx="7.3256478"
           sodipodi:ry="7.3256478"
           d="m 1332.2546,1792.4095 c 0,4.0459 -3.2798,7.3257 -7.3256,7.3257 -4.0459,0 -7.3257,-3.2798 -7.3257,-7.3257 0,-4.0458 3.2798,-7.3256 7.3257,-7.3256 4.0458,0 7.3256,3.2798 7.3256,7.3256 z"
           transform="matrix(0.7953719,0,0,0.7953719,499.30379,973.24771)" />
        <path
           transform="matrix(0.7953719,0,0,0.7953719,556.29908,956.69427)"
           d="m 1332.2546,1792.4095 c 0,4.0459 -3.2798,7.3257 -7.3256,7.3257 -4.0459,0 -7.3257,-3.2798 -7.3257,-7.3257 0,-4.0458 3.2798,-7.3256 7.3257,-7.3256 4.0458,0 7.3256,3.2798 7.3256,7.3256 z"
           sodipodi:ry="7.3256478"
           sodipodi:rx="7.3256478"
           sodipodi:cy="1792.4095"
           sodipodi:cx="1324.929"
           id="path3444"
           style="opacity:0.98999999;fill:#ffffff;fill-opacity:1;stroke:none;stroke-width:1;stroke-linecap:square;stroke-linejoin:round;stroke-miterlimit:4;stroke-dasharray:none;stroke-dashoffset:0;stroke-opacity:1"
           sodipodi:type="arc" />
        <path
           sodipodi:type="arc"
           style="opacity:0.98999999;fill:#ffffff;fill-opacity:1;stroke:none;stroke-width:1;stroke-linecap:square;stroke-linejoin:round;stroke-miterlimit:4;stroke-dasharray:none;stroke-dashoffset:0;stroke-opacity:1"
           id="path3446"
           sodipodi:cx="1324.929"
           sodipodi:cy="1792.4095"
           sodipodi:rx="7.3256478"
           sodipodi:ry="7.3256478"
           d="m 1332.2546,1792.4095 c 0,4.0459 -3.2798,7.3257 -7.3256,7.3257 -4.0459,0 -7.3257,-3.2798 -7.3257,-7.3257 0,-4.0458 3.2798,-7.3256 7.3257,-7.3256 4.0458,0 7.3256,3.2798 7.3256,7.3256 z"
           transform="matrix(0.7953719,0,0,0.7953719,581.00221,902.90894)" />
        <path
           transform="matrix(0.6234843,0,0,0.6234843,800.65848,1180.6657)"
           d="m 1332.2546,1792.4095 c 0,4.0459 -3.2798,7.3257 -7.3256,7.3257 -4.0459,0 -7.3257,-3.2798 -7.3257,-7.3257 0,-4.0458 3.2798,-7.3256 7.3257,-7.3256 4.0458,0 7.3256,3.2798 7.3256,7.3256 z"
           sodipodi:ry="7.3256478"
           sodipodi:rx="7.3256478"
           sodipodi:cy="1792.4095"
           sodipodi:cx="1324.929"
           id="path3448"
           style="opacity:0.98999999;fill:#ffffff;fill-opacity:1;stroke:none;stroke-width:1;stroke-linecap:square;stroke-linejoin:round;stroke-miterlimit:4;stroke-dasharray:none;stroke-dashoffset:0;stroke-opacity:1"
           sodipodi:type="arc" />
        <path
           sodipodi:type="arc"
           style="opacity:0.98999999;fill:#ffffff;fill-opacity:1;stroke:none;stroke-width:1;stroke-linecap:square;stroke-linejoin:round;stroke-miterlimit:4;stroke-dasharray:none;stroke-dashoffset:0;stroke-opacity:1"
           id="path3450"
           sodipodi:cx="1324.929"
           sodipodi:cy="1792.4095"
           sodipodi:rx="7.3256478"
           sodipodi:ry="7.3256478"
           d="m 1332.2546,1792.4095 c 0,4.0459 -3.2798,7.3257 -7.3256,7.3257 -4.0459,0 -7.3257,-3.2798 -7.3257,-7.3257 0,-4.0458 3.2798,-7.3256 7.3257,-7.3256 4.0458,0 7.3256,3.2798 7.3256,7.3256 z"
           transform="matrix(0.6234843,0,0,0.6234843,766.33259,1139.9519)" />
        <path
           transform="matrix(0.6234843,0,0,0.6234843,664.75027,1230.1938)"
           d="m 1332.2546,1792.4095 c 0,4.0459 -3.2798,7.3257 -7.3256,7.3257 -4.0459,0 -7.3257,-3.2798 -7.3257,-7.3257 0,-4.0458 3.2798,-7.3256 7.3257,-7.3256 4.0458,0 7.3256,3.2798 7.3256,7.3256 z"
           sodipodi:ry="7.3256478"
           sodipodi:rx="7.3256478"
           sodipodi:cy="1792.4095"
           sodipodi:cx="1324.929"
           id="path3454"
           style="opacity:0.98999999;fill:#ffffff;fill-opacity:1;stroke:none;stroke-width:1;stroke-linecap:square;stroke-linejoin:round;stroke-miterlimit:4;stroke-dasharray:none;stroke-dashoffset:0;stroke-opacity:1"
           sodipodi:type="arc" />
        <path
           sodipodi:type="arc"
           style="opacity:0.98999999;fill:#ffffff;fill-opacity:1;stroke:none;stroke-width:1;stroke-linecap:square;stroke-linejoin:round;stroke-miterlimit:4;stroke-dasharray:none;stroke-dashoffset:0;stroke-opacity:1"
           id="path3456"
           sodipodi:cx="1324.929"
           sodipodi:cy="1792.4095"
           sodipodi:rx="7.3256478"
           sodipodi:ry="7.3256478"
           d="m 1332.2546,1792.4095 c 0,4.0459 -3.2798,7.3257 -7.3256,7.3257 -4.0459,0 -7.3257,-3.2798 -7.3257,-7.3257 0,-4.0458 3.2798,-7.3256 7.3257,-7.3256 4.0458,0 7.3256,3.2798 7.3256,7.3256 z"
           transform="matrix(0.6234843,0,0,0.6234843,701.58781,1267.5497)" />
        <path
           sodipodi:type="arc"
           style="opacity:0.98999999;fill:#ffffff;fill-opacity:1;stroke:none;stroke-width:1;stroke-linecap:square;stroke-linejoin:round;stroke-miterlimit:4;stroke-dasharray:none;stroke-dashoffset:0;stroke-opacity:1"
           id="path3458"
           sodipodi:cx="1324.929"
           sodipodi:cy="1792.4095"
           sodipodi:rx="7.3256478"
           sodipodi:ry="7.3256478"
           d="m 1332.2546,1792.4095 c 0,4.0459 -3.2798,7.3257 -7.3256,7.3257 -4.0459,0 -7.3257,-3.2798 -7.3257,-7.3257 0,-4.0458 3.2798,-7.3256 7.3257,-7.3256 4.0458,0 7.3256,3.2798 7.3256,7.3256 z"
           transform="matrix(0.7953719,0,0,0.7953719,440.41431,869.81028)" />
        <path
           transform="matrix(0.7953719,0,0,0.7953719,484.50773,829.39633)"
           d="m 1332.2546,1792.4095 c 0,4.0459 -3.2798,7.3257 -7.3256,7.3257 -4.0459,0 -7.3257,-3.2798 -7.3257,-7.3257 0,-4.0458 3.2798,-7.3256 7.3257,-7.3256 4.0458,0 7.3256,3.2798 7.3256,7.3256 z"
           sodipodi:ry="7.3256478"
           sodipodi:rx="7.3256478"
           sodipodi:cy="1792.4095"
           sodipodi:cx="1324.929"
           id="path3460"
           style="opacity:0.98999999;fill:#ffffff;fill-opacity:1;stroke:none;stroke-width:1;stroke-linecap:square;stroke-linejoin:round;stroke-miterlimit:4;stroke-dasharray:none;stroke-dashoffset:0;stroke-opacity:1"
           sodipodi:type="arc" />
        <path
           transform="matrix(0.6234843,0,0,0.6234843,699.00639,1196.6154)"
           d="m 1332.2546,1792.4095 c 0,4.0459 -3.2798,7.3257 -7.3256,7.3257 -4.0459,0 -7.3257,-3.2798 -7.3257,-7.3257 0,-4.0458 3.2798,-7.3256 7.3257,-7.3256 4.0458,0 7.3256,3.2798 7.3256,7.3256 z"
           sodipodi:ry="7.3256478"
           sodipodi:rx="7.3256478"
           sodipodi:cy="1792.4095"
           sodipodi:cx="1324.929"
           id="path3462"
           style="opacity:0.98999999;fill:#ffffff;fill-opacity:1;stroke:none;stroke-width:1;stroke-linecap:square;stroke-linejoin:round;stroke-miterlimit:4;stroke-dasharray:none;stroke-dashoffset:0;stroke-opacity:1"
           sodipodi:type="arc" />
        <path
           sodipodi:type="arc"
           style="opacity:0.98999999;fill:#ffffff;fill-opacity:1;stroke:none;stroke-width:1;stroke-linecap:square;stroke-linejoin:round;stroke-miterlimit:4;stroke-dasharray:none;stroke-dashoffset:0;stroke-opacity:1"
           id="path3464"
           sodipodi:cx="1324.929"
           sodipodi:cy="1792.4095"
           sodipodi:rx="7.3256478"
           sodipodi:ry="7.3256478"
           d="m 1332.2546,1792.4095 c 0,4.0459 -3.2798,7.3257 -7.3256,7.3257 -4.0459,0 -7.3257,-3.2798 -7.3257,-7.3257 0,-4.0458 3.2798,-7.3256 7.3257,-7.3256 4.0458,0 7.3256,3.2798 7.3256,7.3256 z"
           transform="matrix(0.6234843,0,0,0.6234843,749.0301,1256.3969)" />
        <path
           id="path3468"
           d="M 1590.0065,2271.6035 L 1571.3784,2344.2766"
           style="fill:none;fill-rule:evenodd;stroke:#ffffff;stroke-width:8;stroke-linecap:butt;stroke-linejoin:miter;stroke-miterlimit:4;stroke-dasharray:none;stroke-opacity:1" />
        <path
           id="path3470"
           d="M 1589.0995,2273.5223 L 1516.5407,2281.9768"
           style="fill:none;fill-rule:evenodd;stroke:#ffffff;stroke-width:8;stroke-linecap:butt;stroke-linejoin:miter;stroke-miterlimit:4;stroke-dasharray:none;stroke-opacity:1" />
        <path
           id="path3472"
           d="M 1571.3087,2343.4372 L 1516.6105,2281.5571"
           style="fill:none;fill-rule:evenodd;stroke:#ffffff;stroke-width:8;stroke-linecap:butt;stroke-linejoin:miter;stroke-miterlimit:4;stroke-dasharray:none;stroke-opacity:1" />
        <path
           id="path3474"
           d="M 1571.3087,2343.8569 L 1553.2387,2399.8009"
           style="fill:none;fill-rule:evenodd;stroke:#ffffff;stroke-width:6;stroke-linecap:butt;stroke-linejoin:miter;stroke-miterlimit:4;stroke-dasharray:none;stroke-opacity:1" />
        <path
           id="path3476"
           d="M 1516.4012,2281.3172 L 1537.4014,2256.9729"
           style="fill:none;fill-rule:evenodd;stroke:#ffffff;stroke-width:4;stroke-linecap:butt;stroke-linejoin:miter;stroke-miterlimit:4;stroke-dasharray:none;stroke-opacity:1" />
        <path
           id="path3478"
           d="M 1493.9359,2295.4681 L 1515.7035,2281.1374"
           style="fill:none;fill-rule:evenodd;stroke:#ffffff;stroke-width:4;stroke-linecap:butt;stroke-linejoin:miter;stroke-miterlimit:4;stroke-dasharray:none;stroke-opacity:1" />
        <path
           id="path3480"
           d="M 1503.0057,2350.6326 L 1516.4012,2280.6577"
           style="fill:none;fill-rule:evenodd;stroke:#ffffff;stroke-width:4;stroke-linecap:butt;stroke-linejoin:miter;stroke-miterlimit:4;stroke-dasharray:none;stroke-opacity:1" />
        <path
           id="path3482"
           d="M 1552.1922,2398.5417 L 1502.6569,2351.9517"
           style="fill:none;fill-rule:evenodd;stroke:#ffffff;stroke-width:6;stroke-linecap:butt;stroke-linejoin:miter;stroke-miterlimit:4;stroke-dasharray:none;stroke-opacity:1" />
        <path
           id="path3484"
           d="M 1610.0997,2381.3328 L 1551.9829,2398.3018"
           style="fill:none;fill-rule:evenodd;stroke:#ffffff;stroke-width:6;stroke-linecap:butt;stroke-linejoin:miter;stroke-miterlimit:4;stroke-dasharray:none;stroke-opacity:1" />
        <path
           id="path3486"
           d="M 1634.2395,2328.3869 L 1610.0997,2381.5126"
           style="fill:none;fill-rule:evenodd;stroke:#ffffff;stroke-width:6;stroke-linecap:butt;stroke-linejoin:miter;stroke-miterlimit:4;stroke-dasharray:none;stroke-opacity:1" />
        <path
           id="path3488"
           d="M 1570.5412,2343.4372 L 1633.4023,2328.8066"
           style="fill:none;fill-rule:evenodd;stroke:#ffffff;stroke-width:6;stroke-linecap:butt;stroke-linejoin:miter;stroke-miterlimit:4;stroke-dasharray:none;stroke-opacity:1" />
        <path
           id="path3491"
           d="M 1590.1461,2273.0426 L 1633.2627,2328.207"
           style="fill:none;fill-rule:evenodd;stroke:#ffffff;stroke-width:6;stroke-linecap:butt;stroke-linejoin:miter;stroke-miterlimit:4;stroke-dasharray:none;stroke-opacity:1" />
        <path
           id="path3493"
           d="M 1501.7987,2350.6326 L 1568.7761,2343.4372"
           style="fill:none;fill-rule:evenodd;stroke:#ffffff;stroke-width:6;stroke-linecap:butt;stroke-linejoin:miter;stroke-miterlimit:4;stroke-dasharray:none;stroke-opacity:1" />
        <path
           id="path3495"
           d="M 1551.4038,2398.062 L 1526.985,2384.9304"
           style="fill:none;fill-rule:evenodd;stroke:#ffffff;stroke-width:4;stroke-linecap:butt;stroke-linejoin:miter;stroke-miterlimit:4;stroke-dasharray:none;stroke-opacity:1" />
        <path
           id="path3497"
           d="M 1489.38,2347.2747 L 1525.7292,2384.5707"
           style="fill:none;fill-rule:evenodd;stroke:#ffffff;stroke-width:4;stroke-linecap:butt;stroke-linejoin:miter;stroke-miterlimit:4;stroke-dasharray:none;stroke-opacity:1" />
        <path
           id="path3499"
           d="M 1493.2173,2295.9478 L 1490.4963,2347.2747"
           style="fill:none;fill-rule:evenodd;stroke:#ffffff;stroke-width:4;stroke-linecap:butt;stroke-linejoin:miter;stroke-miterlimit:4;stroke-dasharray:none;stroke-opacity:1" />
        <path
           id="path3501"
           d="M 1537.3805,2254.8743 L 1591.4507,2256.7331"
           style="fill:none;fill-rule:evenodd;stroke:#ffffff;stroke-width:4;stroke-linecap:butt;stroke-linejoin:miter;stroke-miterlimit:4;stroke-dasharray:none;stroke-opacity:1" />
        <path
           id="path3503"
           d="M 1627.172,2298.5261 L 1592.9158,2256.5532"
           style="fill:none;fill-rule:evenodd;stroke:#ffffff;stroke-width:4;stroke-linecap:butt;stroke-linejoin:miter;stroke-miterlimit:4;stroke-dasharray:none;stroke-opacity:1" />
        <path
           id="path3505"
           d="M 1635.4744,2328.207 L 1626.4743,2298.1064"
           style="fill:none;fill-rule:evenodd;stroke:#ffffff;stroke-width:4;stroke-linecap:butt;stroke-linejoin:miter;stroke-miterlimit:4;stroke-dasharray:none;stroke-opacity:1" />
        <path
           id="path3507"
           d="M 1589.4972,2272.2631 L 1592.7065,2256.9729"
           style="fill:none;fill-rule:evenodd;stroke:#ffffff;stroke-width:4;stroke-linecap:butt;stroke-linejoin:miter;stroke-miterlimit:4;stroke-dasharray:none;stroke-opacity:1" />
        <path
           id="path3509"
           d="M 1503.6825,2351.2305 L 1489.5196,2348.5322"
           style="fill:none;fill-rule:evenodd;stroke:#ffffff;stroke-width:4;stroke-linecap:butt;stroke-linejoin:miter;stroke-miterlimit:4;stroke-dasharray:none;stroke-opacity:1" />
        <path
           id="path3511"
           d="M 1526.985,2385.4084 L 1573.7296,2373.9558"
           style="fill:none;fill-rule:evenodd;stroke:#ffffff;stroke-width:2;stroke-linecap:butt;stroke-linejoin:miter;stroke-miterlimit:4;stroke-dasharray:none;stroke-opacity:1" />
        <path
           id="path3513"
           d="M 1574.9157,2373.8958 L 1608.5439,2381.1512"
           style="fill:none;fill-rule:evenodd;stroke:#ffffff;stroke-width:2;stroke-linecap:butt;stroke-linejoin:miter;stroke-miterlimit:4;stroke-dasharray:none;stroke-opacity:1" />
        <path
           id="path3515"
           d="M 1492.5121,2295.941 L 1553.7151,2289.0932"
           style="fill:none;fill-rule:evenodd;stroke:#ffffff;stroke-width:2;stroke-linecap:butt;stroke-linejoin:miter;stroke-miterlimit:4;stroke-dasharray:none;stroke-opacity:1" />
        <path
           id="path3517"
           d="M 1553.7151,2287.7387 L 1590.1392,2274.1935"
           style="fill:none;fill-rule:evenodd;stroke:#ffffff;stroke-width:2;stroke-linecap:butt;stroke-linejoin:miter;stroke-miterlimit:4;stroke-dasharray:none;stroke-opacity:1" />
        <path
           transform="matrix(0.6234843,0,0,0.6234843,726.86911,1170.9368)"
           d="m 1332.2546,1792.4095 c 0,4.0459 -3.2798,7.3257 -7.3256,7.3257 -4.0459,0 -7.3257,-3.2798 -7.3257,-7.3257 0,-4.0458 3.2798,-7.3256 7.3257,-7.3256 4.0458,0 7.3256,3.2798 7.3256,7.3256 z"
           sodipodi:ry="7.3256478"
           sodipodi:rx="7.3256478"
           sodipodi:cy="1792.4095"
           sodipodi:cx="1324.929"
           id="path3519"
           style="opacity:0.98999999;fill:#ffffff;fill-opacity:1;stroke:none;stroke-width:1;stroke-linecap:square;stroke-linejoin:round;stroke-miterlimit:4;stroke-dasharray:none;stroke-dashoffset:0;stroke-opacity:1"
           sodipodi:type="arc" />
        <path
           sodipodi:type="arc"
           style="opacity:0.98999999;fill:#ffffff;fill-opacity:1;stroke:none;stroke-width:1;stroke-linecap:square;stroke-linejoin:round;stroke-miterlimit:4;stroke-dasharray:none;stroke-dashoffset:0;stroke-opacity:1"
           id="path3521"
           sodipodi:cx="1324.929"
           sodipodi:cy="1792.4095"
           sodipodi:rx="7.3256478"
           sodipodi:ry="7.3256478"
           d="m 1332.2546,1792.4095 c 0,4.0459 -3.2798,7.3257 -7.3256,7.3257 -4.0459,0 -7.3257,-3.2798 -7.3257,-7.3257 0,-4.0458 3.2798,-7.3256 7.3257,-7.3256 4.0458,0 7.3256,3.2798 7.3256,7.3256 z"
           transform="matrix(0.5833906,0,0,0.5833906,837.2333,1298.2147)" />
        <path
           id="path3523"
           d="M 1609.6576,2343.739 L 1626.0616,2297.6751"
           style="fill:none;fill-rule:evenodd;stroke:#ffffff;stroke-width:2;stroke-linecap:butt;stroke-linejoin:miter;stroke-miterlimit:4;stroke-dasharray:none;stroke-opacity:1" />
        <path
           id="path3525"
           d="M 1609.4298,2381.481 L 1609.9994,2342.711"
           style="fill:none;fill-rule:evenodd;stroke:#ffffff;stroke-width:2;stroke-linecap:butt;stroke-linejoin:miter;stroke-miterlimit:4;stroke-dasharray:none;stroke-opacity:1" />
        <path
           style="fill:none;fill-rule:evenodd;stroke:#ffffff;stroke-width:2;stroke-linecap:butt;stroke-linejoin:miter;stroke-miterlimit:4;stroke-dasharray:none;stroke-opacity:1"
           d="M 1502.1919,2350.0723 L 1525.6258,2314.115"
           id="path3527" />
        <path
           style="fill:none;fill-rule:evenodd;stroke:#ffffff;stroke-width:2;stroke-linecap:butt;stroke-linejoin:miter;stroke-miterlimit:4;stroke-dasharray:none;stroke-opacity:1"
           d="M 1537.8572,2255.3651 L 1524.94,2314.115"
           id="path3529" />
      </g>
      <path
         id="path3581"
         d="M 421.03206,369.17918 C 418.13506,368.51758 417.92946,368.30738 417.92946,366.00778 C 417.92946,362.71728 419.02766,362.44558 429.73076,363.08878 C 442.39446,363.84948 465.87806,362.84458 467.23906,361.48358 C 468.13206,360.59068 468.29036,356.11258 468.23706,333.28118 C 468.20206,318.35358 467.95166,303.23358 467.68076,299.68098 C 466.96866,290.34658 467.14616,290.44488 451.01626,290.44488 C 438.17186,290.44488 436.12136,290.79308 434.19566,293.30168 C 433.70666,293.93868 430.62226,299.49888 427.34166,305.65738 L 421.37666,316.85488 L 424.42316,322.81278 C 429.24936,332.25098 432.54496,336.71548 435.08486,337.25668 C 436.28946,337.51318 442.78436,337.76198 449.51836,337.80958 C 461.74726,337.89578 461.76276,337.89808 462.57206,339.67448 C 464.35656,343.59078 463.82196,343.73598 447.61656,343.73598 C 430.13986,343.73598 430.93976,344.04778 425.56246,335.13918 C 420.99036,327.56478 418.80366,324.75558 417.47956,324.75558 C 416.78176,324.75558 414.80126,328.08308 412.11046,333.77628 C 409.76556,338.73758 407.34876,342.98818 406.73996,343.22188 C 405.83536,343.56888 378.58526,343.96508 368.10596,343.78348 C 366.39116,343.75378 364.82286,343.19068 363.90846,342.27598 C 362.50086,340.86838 362.44836,339.84248 362.44836,313.75738 C 362.44836,296.50128 362.72206,286.18728 363.20396,285.28678 C 363.91736,283.95398 364.89566,283.87468 380.63306,283.87468 C 389.80356,283.87468 398.36416,284.08638 399.65706,284.34488 C 402.59056,284.93158 405.08516,288.25808 411.73206,300.44668 C 414.42506,305.38498 417.07086,309.42528 417.61166,309.42528 C 418.15256,309.42528 419.96376,307.04368 421.63666,304.13268 C 427.07306,294.67298 431.32406,287.99328 433.34896,285.72838 L 435.33266,283.50968 L 453.02766,283.75438 C 462.75976,283.88888 471.47506,284.28528 472.39476,284.63498 C 475.52036,285.82308 475.71976,288.73708 475.46966,329.55158 C 475.28526,359.65878 475.03486,367.95568 474.28766,368.70308 C 473.11216,369.87878 425.94186,370.30038 421.03206,369.17918 z M 403.89916,336.21738 C 405.37356,334.88128 414.27946,318.26608 414.27946,316.85108 C 414.27946,315.65168 402.14126,293.93188 400.46646,292.13448 C 398.49756,290.02148 394.36856,289.47238 383.23466,289.84298 C 372.96206,290.18508 370.69166,291.12708 369.55336,295.51978 C 369.20996,296.84548 369.03116,306.23158 369.15606,316.37768 C 369.36696,333.47798 369.48766,334.94038 370.81006,336.40048 C 372.19716,337.93178 372.65546,337.96918 387.34306,337.75308 C 400.67106,337.55718 402.62016,337.37618 403.89916,336.21738 z M 319.23056,343.78898 C 300.73606,343.50048 292.18186,343.11438 291.61066,342.54268 C 291.15566,342.08718 290.89316,340.93728 291.02756,339.98768 L 291.27186,338.26088 L 318.26126,337.89588 L 345.25066,337.53088 L 346.21006,335.70578 C 346.84766,334.49318 347.09976,331.71778 346.96116,327.43388 C 346.78706,322.04158 346.52126,320.81748 345.33606,319.95118 C 344.22166,319.13678 340.71206,318.91468 328.91066,318.91138 C 312.51176,318.90698 308.83916,318.35668 308.15426,315.80118 C 307.91386,314.90428 307.71256,307.90938 307.70716,300.25708 C 307.69936,289.38108 307.92346,286.03458 308.73336,284.92678 C 309.70466,283.59848 310.84396,283.50388 326.92426,283.41738 C 336.35916,283.36668 345.99456,283.53078 348.33596,283.78238 L 352.59306,284.23968 L 352.81976,286.97728 L 353.04626,289.71488 L 347.70956,289.80588 C 344.77436,289.85588 337.26866,289.93808 331.03016,289.98848 C 321.56996,290.06468 319.36326,290.29158 317.73596,291.35538 C 315.15386,293.04338 314.06016,297.31648 314.38406,304.44968 C 314.77386,313.03328 313.83956,312.64018 334.88356,313.07538 L 352.52996,313.44038 L 353.03636,315.26528 C 353.80236,318.02668 353.78686,342.85878 353.01866,343.33358 C 351.73766,344.12528 345.86246,344.20448 319.23056,343.78898 z M 485.98336,342.59958 L 484.36096,341.46308 L 484.36096,313.90348 C 484.36096,291.25788 484.54556,286.09128 485.39676,284.92678 C 486.35496,283.61598 487.59996,283.49018 502.00456,283.24898 C 510.56916,283.10548 522.59346,283.22258 528.72516,283.50898 C 539.07626,283.99268 539.93776,284.14198 540.76666,285.59478 C 541.90516,287.59008 542.42566,315.84378 541.35376,317.45548 C 540.73646,318.38348 537.64226,318.55048 521.07076,318.55048 C 510.31576,318.55048 500.28426,318.28918 498.77866,317.96988 C 496.39206,317.46368 496.04126,317.12278 496.04126,315.31038 C 496.04126,314.08818 496.51706,313.04898 497.19586,312.78838 C 497.83096,312.54478 505.96156,312.34038 515.26376,312.33408 C 524.56596,312.32798 532.63446,312.03328 533.19376,311.67918 C 535.55826,310.18188 535.74346,292.92268 533.41586,290.99168 C 532.59796,290.31338 527.37656,290.07988 513.01916,290.07988 L 493.72166,290.07988 L 492.32626,291.80328 C 491.02466,293.41098 490.93106,294.94008 490.93106,314.57488 C 490.93106,335.49788 490.94066,335.62978 492.55346,336.75938 C 493.96116,337.74548 498.35496,337.89588 525.75536,337.89588 L 557.33466,337.89588 L 557.79226,339.71938 C 558.84746,343.92298 560.49006,343.73598 522.50706,343.73598 C 492.10026,343.73598 487.39686,343.58968 485.98336,342.59958 z"
         style="fill:#ffffff;fill-opacity:1" />
      <path
         style="fill:none;fill-rule:evenodd;stroke:#ffffff;stroke-width:2.70117497;stroke-linecap:butt;stroke-linejoin:miter;stroke-miterlimit:4;stroke-dasharray:none;stroke-opacity:1"
         d="M 254.60496,253.34928 C 254.60496,385.35928 254.60496,384.21228 254.60496,384.21228"
         id="path3583" />
    </g>
  </g>
  <svg
     version="1.1"
     baseProfile="full"
     id="body"
     width="8in"
     height="8in"
     viewBox="0 0 1 1"
     preserveAspectRatio="none" />
  <svg
     version="1.1"
     baseProfile="full"
     id="svg118829"
     width="8in"
     height="8in"
     viewBox="0 0 1 1"
     preserveAspectRatio="none" />
</svg>
