<?xml version="1.0" encoding="UTF-8" standalone="no"?>
<svg xmlns="http://www.w3.org/2000/svg" height="256pt" width="256pt" version="1.1" viewBox="0 0 16 16">
<!--<rect stroke-linejoin="round" width="16" height="16" fill="lime"/>-->
<g stroke-linejoin="round" stroke-linecap="round" transform="matrix(0 .048 .048 0 -0.2 0)" fill="none" stroke="black">
<g stroke-width="20">
<path  d="m142.97 122.87c0 38.671 2.6614 80.786 7.3936 117 4.7322 36.213 11.157 63.633 17.85 76.175"/>
<path  d="m299.39 236.28c-3.3149-6.2124-9.9905-14.074-19.645-23.136-9.6542-9.0615-22.099-19.146-36.623-29.678-14.524-10.531-30.844-21.304-48.026-31.701s-34.892-20.218-52.117-28.898"  />
<path  d="m299.39 90.418c-6.7-12.542-26.95-16.174-56.27-10.09s-65.37 21.402-100.15 42.542"  />
<path  d="m142.97 122.87c-34.77-17.52-65.494-29.361-85.351-32.885s-27.261 1.548-20.569 14.095"  />
<path  d="m142.97 122.87c-34.77 21.15-65.494 46.44-85.351 70.26s-27.261 44.27-20.569 56.81"  />
<path  d="m168.22 316.05c26.585-1.384 52.707-9.4847 75.73-23.485s42.146-33.412 55.438-56.277"  />
<path  d="m299.39 236.28c13.292-22.865 20.292-48.387 20.292-73.99s-6.9994-50.396-20.292-71.877"  />
<path  d="m299.39 90.418c-13.3-21.48-32.42-38.901-55.44-50.504-23.03-11.603-49.15-16.984-75.73-15.6-26.59 1.384-52.71 9.484-75.732 23.484-23.023 14-42.146 33.412-55.438 56.282"  />
<path  d="m37.05 104.08c-13.292 22.865-20.292 48.387-20.292 73.99s6.9994 50.396 20.292 71.877"  />
<path  d="m37.05 249.94c13.292 21.481 32.415 38.902 55.438 50.505s49.145 16.984 75.73 15.6"  />
</g>
<g stroke-width="10">
<path  d="m193.46 217.49c17.225-10.474 33.629-22.07 48.274-34.125 14.645-12.054 27.246-24.332 37.082-36.132 9.8358-11.799 16.715-22.89 20.244-32.638 3.5291-9.7478 3.6393-17.963 0.32438-24.175"/>
<path  d="m37.05 249.94c6.6924 12.542 26.946 16.174 56.268 10.09 29.322-6.0839 65.369-21.398 100.14-42.544"/>
</g>
</g>
</svg>
