<?xml version="1.0" encoding="UTF-8" standalone="no"?>
<svg xmlns="http://www.w3.org/2000/svg" height="1200" width="1600" version="1.1" viewBox="0 0 423.33333 317.50001">
<defs>
<style type="text/css">@import url(&apos;https://fonts.googleapis.com/css?family=Courgette&apos;);</style>
<linearGradient id="a" x1="1.9956" gradientUnits="userSpaceOnUse" x2="147.77" gradientTransform="matrix(3.0262 0 0 3.0262 -15.298 75.679)" y1="1.9964" y2="55.703">
<stop stop-color="#00f" offset="0"/>
<stop stop-color="#000388" offset="1"/>
</linearGradient>
</defs>
<rect height="320" width="425" y="0" x="0" fill="url(#a)"/>
<g stroke-linejoin="round" transform="translate(0 -55.178)" stroke="#fff" stroke-width="4" fill="none">
<polyline points="55 10 38 10 38 20 53 20 53 30 28 30" transform="matrix(3.0262,0,0,3.0262,-30.429,64.654)"/>
<polyline points="97 30 85 30 75 10 60 10 60 30 75 30 85 10 100 10 100 40 80 40" transform="matrix(3.0262,0,0,3.0262,-30.429,64.654)"/>
<polyline points="132 30 107 30 107 10 122 10 122 20 110 20" transform="matrix(3.0262,0,0,3.0262,-30.429,64.654)"/>
</g>
<text font-size="24.21px" font-family="Courgette, serif" y="271.13083" x="102.72346" stroke-width="3.0262" font-style="oblique" fill="#d3d3d3">
<tspan x="208.64047" style="text-anchor:middle" stroke-width="3.0262">open source mathematics</tspan>
</text>
<g transform="matrix(12.825 0 0 12.825 -57.651 193.89)">
<g fill="#000362">
<polygon points="23.25 -1.25 23.25 -1.75 23 -2 22.75 -1.75 22.75 -1.25 23 -1"/>
<polygon points="38.25 0.75 38.25 0.25 38 0 37.75 0.25 37.75 0.75 38 1"/>
<polygon points="26.25 -1.25 26.25 -1.75 26 -2 25.75 -1.75 25.75 -1.25 26 -1"/>
<polygon points="4.25 -0.25 4.25 -0.75 4 -1 3.75 -0.75 3.75 -0.25 4 0"/>
<polygon points="8.25 -1.25 8.25 -1.75 8 -2 7.75 -1.75 7.75 -1.25 8 -1"/>
<polygon points="35.25 -0.25 35.25 -1.75 35 -2 34.75 -1.75 34.75 -0.25 35 0"/>
<polygon points="24.25 0.75 24.25 0.25 24 0 23.75 0.25 23.75 0.75 24 1"/>
<polygon points="3.25 1.75 3.25 1.25 3 1 2.75 1.25 2.75 1.75 3 2"/>
<polygon points="27.25 1.75 27.25 1.25 27 1 26.75 1.25 26.75 1.75 27 2"/>
<polygon points="8.25 1.75 8.25 1.25 8 1 7.75 1.25 7.75 1.75 8 2"/>
<polygon points="20.25 -1.25 20.25 -1.75 20 -2 19.75 -1.75 19.75 -1.25 20 -1"/>
<polygon points="11.25 0.75 11.25 0.25 11 0 10.75 0.25 10.75 0.75 11 1"/>
<polygon points="42.25 -0.25 42.25 -1.75 42 -2 41.75 -1.75 41.75 -0.25 42 0"/>
<polygon points="31.25 1.75 31.25 1.25 31 1 30.75 1.25 30.75 1.75 31 2"/>
<polygon points="36.25 1.75 36.25 1.25 36 1 35.75 1.25 35.75 1.75 36 2"/>
<polygon points="18.25 -0.25 18.25 -0.75 18 -1 17.75 -0.75 17.75 -0.25 18 0"/>
<polygon points="39.25 0.75 39.25 0.25 39 0 38.75 0.25 38.75 0.75 39 1"/>
<polygon points="21.25 1.75 21.25 0.25 21 0 20.75 0.25 20.75 1.75 21 2"/>
<polygon points="2.25 1.75 2.25 1.25 2 1 1.75 1.25 1.75 1.75 2 2"/>
<polygon points="40.25 -1.25 40.25 -1.75 40 -2 39.75 -1.75 39.75 -1.25 40 -1"/>
<polygon points="6.25 -1.25 6.25 -1.75 6 -2 5.75 -1.75 5.75 -1.25 6 -1"/>
<polygon points="7.25 1.75 7.25 0.25 7 0 6.75 0.25 6.75 1.75 7 2"/>
<polygon points="41.25 1.75 41.25 1.25 41 1 40.75 1.25 40.75 1.75 41 2"/>
<polygon points="1.25 -1.25 1.25 -1.75 1 -2 0.75 -1.75 0.75 -1.25 1 -1"/>
<polygon points="25.25 0.75 25.25 0.25 25 0 24.75 0.25 24.75 0.75 25 1"/>
<polygon points="41.25 -1.25 41.25 -1.75 41 -2 40.75 -1.75 40.75 -1.25 41 -1"/>
<polygon points="31.25 -0.25 31.25 -0.75 31 -1 30.75 -0.75 30.75 -0.25 31 0"/>
<polygon points="4.25 1.75 4.25 1.25 4 1 3.75 1.25 3.75 1.75 4 2"/>
<polygon points="33.25 1.75 33.25 1.25 33 1 32.75 1.25 32.75 1.75 33 2"/>
<polygon points="30.25 1.75 30.25 1.25 30 1 29.75 1.25 29.75 1.75 30 2"/>
<polygon points="28.25 -0.25 28.25 -1.75 28 -2 27.75 -1.75 27.75 -0.25 28 0"/>
<polygon points="24.25 -1.25 24.25 -1.75 24 -2 23.75 -1.75 23.75 -1.25 24 -1"/>
<polygon points="13.25 -1.25 13.25 -1.75 13 -2 12.75 -1.75 12.75 -1.25 13 -1"/>
<polygon points="19.25 1.75 19.25 1.25 19 1 18.75 1.25 18.75 1.75 19 2"/>
<polygon points="32.25 -0.25 32.25 -0.75 32 -1 31.75 -0.75 31.75 -0.25 32 0"/>
<polygon points="29.25 -1.25 29.25 -1.75 29 -2 28.75 -1.75 28.75 -1.25 29 -1"/>
<polygon points="6.25 1.75 6.25 1.25 6 1 5.75 1.25 5.75 1.75 6 2"/>
<polygon points="29.25 1.75 29.25 1.25 29 1 28.75 1.25 28.75 1.75 29 2"/>
<polygon points="3.25 -0.25 3.25 -0.75 3 -1 2.75 -0.75 2.75 -0.25 3 0"/>
<polygon points="16.25 1.75 16.25 1.25 16 1 15.75 1.25 15.75 1.75 16 2"/>
<polygon points="27.25 -1.25 27.25 -1.75 27 -2 26.75 -1.75 26.75 -1.25 27 -1"/>
<polygon points="18.25 1.75 18.25 1.25 18 1 17.75 1.25 17.75 1.75 18 2"/>
<polygon points="14.25 -0.25 14.25 -1.75 14 -2 13.75 -1.75 13.75 -0.25 14 0"/>
<polygon points="22.25 -1.25 22.25 -1.75 22 -2 21.75 -1.75 21.75 -1.25 22 -1"/>
<polygon points="17.25 -0.25 17.25 -0.75 17 -1 16.75 -0.75 16.75 -0.25 17 0"/>
<polygon points="20.25 1.75 20.25 1.25 20 1 19.75 1.25 19.75 1.75 20 2"/>
<polygon points="38.25 -1.25 38.25 -1.75 38 -2 37.75 -1.75 37.75 -1.25 38 -1"/>
<polygon points="12.25 -1.25 12.25 -1.75 12 -2 11.75 -1.75 11.75 -1.25 12 -1"/>
<polygon points="35.25 1.75 35.25 0.25 35 0 34.75 0.25 34.75 1.75 35 2"/>
<polygon points="7.25 -0.25 7.25 -1.75 7 -2 6.75 -1.75 6.75 -0.25 7 0"/>
<polygon points="39.25 -1.25 39.25 -1.75 39 -2 38.75 -1.75 38.75 -1.25 39 -1"/>
<polygon points="36.25 -1.25 36.25 -1.75 36 -2 35.75 -1.75 35.75 -1.25 36 -1"/>
<polygon points="32.25 1.75 32.25 1.25 32 1 31.75 1.25 31.75 1.75 32 2"/>
<polygon points="10.25 -1.25 10.25 -1.75 10 -2 9.75 -1.75 9.75 -1.25 10 -1"/>
<polygon points="14.25 1.75 14.25 0.25 14 0 13.75 0.25 13.75 1.75 14 2"/>
<polygon points="17.25 1.75 17.25 1.25 17 1 16.75 1.25 16.75 1.75 17 2"/>
<polygon points="25.25 -1.25 25.25 -1.75 25 -2 24.75 -1.75 24.75 -1.25 25 -1"/>
<polygon points="1.25 1.75 1.25 1.25 1 1 0.75 1.25 0.75 1.75 1 2"/>
<polygon points="22.25 1.75 22.25 1.25 22 1 21.75 1.25 21.75 1.75 22 2"/>
<polygon points="11.25 -1.25 11.25 -1.75 11 -2 10.75 -1.75 10.75 -1.25 11 -1"/>
<polygon points="34.25 -1.25 34.25 -1.75 34 -2 33.75 -1.75 33.75 -1.25 34 -1"/>
<polygon points="34.25 1.75 34.25 1.25 34 1 33.75 1.25 33.75 1.75 34 2"/>
<polygon points="15.25 -1.25 15.25 -1.75 15 -2 14.75 -1.75 14.75 -1.25 15 -1"/>
<polygon points="37.25 -1.25 37.25 -1.75 37 -2 36.75 -1.75 36.75 -1.25 37 -1"/>
<polygon points="0.25 1.75 0.25 0.25 0 0 -0.25 0.25 -0.25 1.75 0 2"/>
<polygon points="21.25 -0.25 21.25 -1.75 21 -2 20.75 -1.75 20.75 -0.25 21 0"/>
<polygon points="9.25 -1.25 9.25 -1.75 9 -2 8.75 -1.75 8.75 -1.25 9 -1"/>
<polygon points="10.25 0.75 10.25 0.25 10 0 9.75 0.25 9.75 0.75 10 1"/>
<polygon points="13.25 1.75 13.25 1.25 13 1 12.75 1.25 12.75 1.75 13 2"/>
<polygon points="15.25 1.75 15.25 1.25 15 1 14.75 1.25 14.75 1.75 15 2"/>
<polygon points="28.25 1.75 28.25 0.25 28 0 27.75 0.25 27.75 1.75 28 2"/>
<polygon points="5.25 1.75 5.25 1.25 5 1 4.75 1.25 4.75 1.75 5 2"/>
<polygon points="23.25 -0.75 23.25 -1.25 23 -1"/>
<polygon points="34.25 -1.75 34.25 -2.25 34 -2"/>
<polygon points="41.25 2.25 41.25 1.75 41 2"/>
<polygon points="38.25 1.25 38.25 0.75 38 1"/>
<polygon points="20.25 -1.75 20.25 -2.25 20 -2"/>
<polygon points="14.75 0.75 14.75 1.25 15 1"/>
<polygon points="24.75 0.75 24.75 1.25 25 1"/>
<polygon points="26.25 -1.75 26.25 -2.25 26 -2"/>
<polygon points="27.25 2.25 27.25 1.75 27 2"/>
<polygon points="31.75 1.75 31.75 2.25 32 2"/>
<polygon points="3.75 -0.25 3.75 0.25 4 0"/>
<polygon points="8.25 -1.75 8.25 -2.25 8 -2"/>
<polygon points="20.75 -2.25 20.75 -1.75 21 -2"/>
<polygon points="24.25 1.25 24.25 0.75 24 1"/>
<polygon points="40.75 -2.25 40.75 -1.75 41 -2"/>
<polygon points="17.75 -1.25 17.75 -0.75 18 -1"/>
<polygon points="0.75 0.75 0.75 1.25 1 1"/>
<polygon points="3.25 2.25 3.25 1.75 3 2"/>
<polygon points="27.25 1.25 27.25 0.75 27 1"/>
<polygon points="7.75 1.75 7.75 2.25 8 2"/>
<polygon points="20.25 -0.75 20.25 -1.25 20 -1"/>
<polygon points="10.75 -0.25 10.75 0.25 11 0"/>
<polygon points="42.25 0.25 42.25 -0.25 42 0"/>
<polygon points="13.75 1.75 13.75 2.25 14 2"/>
<polygon points="42.25 -1.75 42.25 -2.25 42 -2"/>
<polygon points="2.75 0.75 2.75 1.25 3 1"/>
<polygon points="6.25 -1.75 6.25 -2.25 6 -2"/>
<polygon points="28.75 0.75 28.75 1.25 29 1"/>
<polygon points="31.25 2.25 31.25 1.75 31 2"/>
<polygon points="35.75 1.75 35.75 2.25 36 2"/>
<polygon points="17.75 -0.25 17.75 0.25 18 0"/>
<polygon points="38.75 -0.25 38.75 0.25 39 0"/>
<polygon points="26.75 -2.25 26.75 -1.75 27 -2"/>
<polygon points="21.25 2.25 21.25 1.75 21 2"/>
<polygon points="2.25 1.25 2.25 0.75 2 1"/>
<polygon points="40.25 -1.75 40.25 -2.25 40 -2"/>
<polygon points="6.75 -2.25 6.75 -1.75 7 -2"/>
<polygon points="4.75 0.75 4.75 1.25 5 1"/>
<polygon points="6.25 -0.75 6.25 -1.25 6 -1"/>
<polygon points="3.75 -1.25 3.75 -0.75 4 -1"/>
<polygon points="7.25 2.25 7.25 1.75 7 2"/>
<polygon points="30.75 0.75 30.75 1.25 31 1"/>
<polygon points="41.25 1.25 41.25 0.75 41 1"/>
<polygon points="0.75 -2.25 0.75 -1.75 1 -2"/>
<polygon points="38.75 -2.25 38.75 -1.75 39 -2"/>
<polygon points="24.75 -0.25 24.75 0.25 25 0"/>
<polygon points="41.25 -0.75 41.25 -1.25 41 -1"/>
<polygon points="1.75 1.75 1.75 2.25 2 2"/>
<polygon points="31.25 -0.75 31.25 -1.25 31 -1"/>
<polygon points="4.25 1.25 4.25 0.75 4 1"/>
<polygon points="33.25 2.25 33.25 1.75 33 2"/>
<polygon points="30.25 1.25 30.25 0.75 30 1"/>
<polygon points="28.25 -1.75 28.25 -2.25 28 -2"/>
<polygon points="24.25 -1.75 24.25 -2.25 24 -2"/>
<polygon points="16.75 0.75 16.75 1.25 17 1"/>
<polygon points="13.25 -0.75 13.25 -1.25 13 -1"/>
<polygon points="19.25 2.25 19.25 1.75 19 2"/>
<polygon points="31.75 -0.25 31.75 0.25 32 0"/>
<polygon points="28.75 -2.25 28.75 -1.75 29 -2"/>
<polygon points="6.25 1.25 6.25 0.75 6 1"/>
<polygon points="29.75 1.75 29.75 2.25 30 2"/>
<polygon points="29.25 2.25 29.25 1.75 29 2"/>
<polygon points="3.25 -0.75 3.25 -1.25 3 -1"/>
<polygon points="35.75 -1.25 35.75 -0.75 36 -1"/>
<polygon points="16.25 1.25 16.25 0.75 16 1"/>
<polygon points="25.75 -1.25 25.75 -0.75 26 -1"/>
<polygon points="8.75 -2.25 8.75 -1.75 9 -2"/>
<polygon points="18.75 0.75 18.75 1.25 19 1"/>
<polygon points="-0.25 1.75 -0.25 2.25 0 2"/>
<polygon points="22.75 -2.25 22.75 -1.75 23 -2"/>
<polygon points="3.25 0.25 3.25 -0.25 3 0"/>
<polygon points="5.75 1.75 5.75 2.25 6 2"/>
<polygon points="27.25 -0.75 27.25 -1.25 27 -1"/>
<polygon points="0.75 -1.25 0.75 -0.75 1 -1"/>
<polygon points="18.25 1.25 18.25 0.75 18 1"/>
<polygon points="23.75 -1.25 23.75 -0.75 24 -1"/>
<polygon points="14.25 -1.75 14.25 -2.25 14 -2"/>
<polygon points="27.75 1.75 27.75 2.25 28 2"/>
<polygon points="10.25 0.25 10.25 -0.25 10 0"/>
<polygon points="22.25 -1.75 22.25 -2.25 22 -2"/>
<polygon points="31.25 0.25 31.25 -0.25 31 0"/>
<polygon points="13.25 2.25 13.25 1.75 13 2"/>
<polygon points="17.75 1.75 17.75 2.25 18 2"/>
<polygon points="17.25 -0.75 17.25 -1.25 17 -1"/>
<polygon points="14.75 -1.25 14.75 -0.75 15 -1"/>
<polygon points="20.25 1.25 20.25 0.75 20 1"/>
<polygon points="38.25 -1.75 38.25 -2.25 38 -2"/>
<polygon points="12.25 -1.75 12.25 -2.25 12 -2"/>
<polygon points="24.75 -2.25 24.75 -1.75 25 -2"/>
<polygon points="3.75 1.75 3.75 2.25 4 2"/>
<polygon points="32.75 0.75 32.75 1.25 33 1"/>
<polygon points="35.25 2.25 35.25 1.75 35 2"/>
<polygon points="39.75 -1.25 39.75 -0.75 40 -1"/>
<polygon points="17.25 0.25 17.25 -0.25 17 0"/>
<polygon points="9.75 -1.25 9.75 -0.75 10 -1"/>
<polygon points="38.25 0.25 38.25 -0.25 38 0"/>
<polygon points="28.75 -1.25 28.75 -0.75 29 -1"/>
<polygon points="39.25 -0.75 39.25 -1.25 39 -1"/>
<polygon points="12.75 -2.25 12.75 -1.75 13 -2"/>
<polygon points="21.75 0.75 21.75 1.25 22 1"/>
<polygon points="36.25 -1.75 36.25 -2.25 36 -2"/>
<polygon points="32.25 1.25 32.25 0.75 32 1"/>
<polygon points="10.25 -1.75 10.25 -2.25 10 -2"/>
<polygon points="36.75 -2.25 36.75 -1.75 37 -2"/>
<polygon points="15.75 1.75 15.75 2.25 16 2"/>
<polygon points="17.25 2.25 17.25 1.75 17 2"/>
<polygon points="25.25 -0.75 25.25 -1.25 25 -1"/>
<polygon points="24.25 0.25 24.25 -0.25 24 0"/>
<polygon points="1.25 2.25 1.25 1.75 1 2"/>
<polygon points="21.75 1.75 21.75 2.25 22 2"/>
<polygon points="11.25 -0.75 11.25 -1.25 11 -1"/>
<polygon points="7.75 0.75 7.75 1.25 8 1"/>
<polygon points="34.25 -0.75 34.25 -1.25 34 -1"/>
<polygon points="34.25 1.25 34.25 0.75 34 1"/>
<polygon points="7.75 -1.25 7.75 -0.75 8 -1"/>
<polygon points="10.75 0.75 10.75 1.25 11 1"/>
<polygon points="14.75 -2.25 14.75 -1.75 15 -2"/>
<polygon points="37.25 -0.75 37.25 -1.25 37 -1"/>
<polygon points="-0.25 -0.25 -0.25 0.25 0 0"/>
<polygon points="34.75 -2.25 34.75 -1.75 35 -2"/>
<polygon points="9.25 -0.75 9.25 -1.25 9 -1"/>
<polygon points="10.25 1.25 10.25 0.75 10 1"/>
<polygon points="33.75 1.75 33.75 2.25 34 2"/>
<polygon points="31.75 -1.25 31.75 -0.75 32 -1"/>
<polygon points="37.75 -1.25 37.75 -0.75 38 -1"/>
<polygon points="35.75 0.75 35.75 1.25 36 1"/>
<polygon points="21.75 -1.25 21.75 -0.75 22 -1"/>
<polygon points="13.25 1.25 13.25 0.75 13 1"/>
<polygon points="10.75 -2.25 10.75 -1.75 11 -2"/>
<polygon points="15.25 2.25 15.25 1.75 15 2"/>
<polygon points="38.75 0.75 38.75 1.25 39 1"/>
<polygon points="19.75 1.75 19.75 2.25 20 2"/>
<polygon points="5.25 2.25 5.25 1.75 5 2"/>
<polygon points="11.75 -1.25 11.75 -0.75 12 -1"/>
</g>
<g fill="#6196c2">
<polygon points="34 -2 33.75 -2.25 29.25 -2.25 29 -2 29.25 -1.75 33.75 -1.75"/>
<polygon points="41 2 40.75 1.75 36.25 1.75 36 2 36.25 2.25 40.75 2.25"/>
<polygon points="20 -2 19.75 -2.25 15.25 -2.25 15 -2 15.25 -1.75 19.75 -1.75"/>
<polygon points="16 1 15.75 0.75 15.25 0.75 15 1 15.25 1.25 15.75 1.25"/>
<polygon points="27 1 26.75 0.75 25.25 0.75 25 1 25.25 1.25 26.75 1.25"/>
<polygon points="27 2 26.75 1.75 22.25 1.75 22 2 22.25 2.25 26.75 2.25"/>
<polygon points="33 2 32.75 1.75 32.25 1.75 32 2 32.25 2.25 32.75 2.25"/>
<polygon points="38 0 37.75 -0.25 35.25 -0.25 35 0 35.25 0.25 37.75 0.25"/>
<polygon points="35 0 34.75 -0.25 32.25 -0.25 32 0 32.25 0.25 34.75 0.25"/>
<polygon points="22 -2 21.75 -2.25 21.25 -2.25 21 -2 21.25 -1.75 21.75 -1.75"/>
<polygon points="42 -2 41.75 -2.25 41.25 -2.25 41 -2 41.25 -1.75 41.75 -1.75"/>
<polygon points="20 -1 19.75 -1.25 18.25 -1.25 18 -1 18.25 -0.75 19.75 -0.75"/>
<polygon points="2 1 1.75 0.75 1.25 0.75 1 1 1.25 1.25 1.75 1.25"/>
<polygon points="42 0 41.75 -0.25 39.25 -0.25 39 0 39.25 0.25 41.75 0.25"/>
<polygon points="15 2 14.75 1.75 14.25 1.75 14 2 14.25 2.25 14.75 2.25"/>
<polygon points="4 1 3.75 0.75 3.25 0.75 3 1 3.25 1.25 3.75 1.25"/>
<polygon points="6 -2 5.75 -2.25 1.25 -2.25 1 -2 1.25 -1.75 5.75 -1.75"/>
<polygon points="30 1 29.75 0.75 29.25 0.75 29 1 29.25 1.25 29.75 1.25"/>
<polygon points="28 -2 27.75 -2.25 27.25 -2.25 27 -2 27.25 -1.75 27.75 -1.75"/>
<polygon points="8 -2 7.75 -2.25 7.25 -2.25 7 -2 7.25 -1.75 7.75 -1.75"/>
<polygon points="6 1 5.75 0.75 5.25 0.75 5 1 5.25 1.25 5.75 1.25"/>
<polygon points="6 -1 5.75 -1.25 4.25 -1.25 4 -1 4.25 -0.75 5.75 -0.75"/>
<polygon points="32 1 31.75 0.75 31.25 0.75 31 1 31.25 1.25 31.75 1.25"/>
<polygon points="40 -2 39.75 -2.25 39.25 -2.25 39 -2 39.25 -1.75 39.75 -1.75"/>
<polygon points="3 2 2.75 1.75 2.25 1.75 2 2 2.25 2.25 2.75 2.25"/>
<polygon points="18 1 17.75 0.75 17.25 0.75 17 1 17.25 1.25 17.75 1.25"/>
<polygon points="31 2 30.75 1.75 30.25 1.75 30 2 30.25 2.25 30.75 2.25"/>
<polygon points="37 -1 36.75 -1.25 36.25 -1.25 36 -1 36.25 -0.75 36.75 -0.75"/>
<polygon points="27 -1 26.75 -1.25 26.25 -1.25 26 -1 26.25 -0.75 26.75 -0.75"/>
<polygon points="10 -2 9.75 -2.25 9.25 -2.25 9 -2 9.25 -1.75 9.75 -1.75"/>
<polygon points="20 1 19.75 0.75 19.25 0.75 19 1 19.25 1.25 19.75 1.25"/>
<polygon points="1 2 0.75 1.75 0.25 1.75 0 2 0.25 2.25 0.75 2.25"/>
<polygon points="24 -2 23.75 -2.25 23.25 -2.25 23 -2 23.25 -1.75 23.75 -1.75"/>
<polygon points="7 2 6.75 1.75 6.25 1.75 6 2 6.25 2.25 6.75 2.25"/>
<polygon points="3 -1 2.75 -1.25 1.25 -1.25 1 -1 1.25 -0.75 2.75 -0.75"/>
<polygon points="25 -1 24.75 -1.25 24.25 -1.25 24 -1 24.25 -0.75 24.75 -0.75"/>
<polygon points="29 2 28.75 1.75 28.25 1.75 28 2 28.25 2.25 28.75 2.25"/>
<polygon points="13 2 12.75 1.75 8.25 1.75 8 2 8.25 2.25 12.75 2.25"/>
<polygon points="19 2 18.75 1.75 18.25 1.75 18 2 18.25 2.25 18.75 2.25"/>
<polygon points="17 -1 16.75 -1.25 15.25 -1.25 15 -1 15.25 -0.75 16.75 -0.75"/>
<polygon points="26 -2 25.75 -2.25 25.25 -2.25 25 -2 25.25 -1.75 25.75 -1.75"/>
<polygon points="5 2 4.75 1.75 4.25 1.75 4 2 4.25 2.25 4.75 2.25"/>
<polygon points="34 1 33.75 0.75 33.25 0.75 33 1 33.25 1.25 33.75 1.25"/>
<polygon points="7 0 6.75 -0.25 4.25 -0.25 4 0 4.25 0.25 6.75 0.25"/>
<polygon points="10 0 9.75 -0.25 7.25 -0.25 7 0 7.25 0.25 9.75 0.25"/>
<polygon points="41 -1 40.75 -1.25 40.25 -1.25 40 -1 40.25 -0.75 40.75 -0.75"/>
<polygon points="11 -1 10.75 -1.25 10.25 -1.25 10 -1 10.25 -0.75 10.75 -0.75"/>
<polygon points="31 -1 30.75 -1.25 29.25 -1.25 29 -1 29.25 -0.75 30.75 -0.75"/>
<polygon points="14 -2 13.75 -2.25 13.25 -2.25 13 -2 13.25 -1.75 13.75 -1.75"/>
<polygon points="24 1 23.75 0.75 22.25 0.75 22 1 22.25 1.25 23.75 1.25"/>
<polygon points="38 -2 37.75 -2.25 37.25 -2.25 37 -2 37.25 -1.75 37.75 -1.75"/>
<polygon points="17 2 16.75 1.75 16.25 1.75 16 2 16.25 2.25 16.75 2.25"/>
<polygon points="17 0 16.75 -0.25 14.25 -0.25 14 0 14.25 0.25 16.75 0.25"/>
<polygon points="14 0 13.75 -0.25 11.25 -0.25 11 0 11.25 0.25 13.75 0.25"/>
<polygon points="10 1 9.75 0.75 8.25 0.75 8 1 8.25 1.25 9.75 1.25"/>
<polygon points="9 -1 8.75 -1.25 8.25 -1.25 8 -1 8.25 -0.75 8.75 -0.75"/>
<polygon points="13 1 12.75 0.75 11.25 0.75 11 1 11.25 1.25 12.75 1.25"/>
<polygon points="3 0 2.75 -0.25 0.25 -0.25 0 0 0.25 0.25 2.75 0.25"/>
<polygon points="24 0 23.75 -0.25 21.25 -0.25 21 0 21.25 0.25 23.75 0.25"/>
<polygon points="21 0 20.75 -0.25 18.25 -0.25 18 0 18.25 0.25 20.75 0.25"/>
<polygon points="36 -2 35.75 -2.25 35.25 -2.25 35 -2 35.25 -1.75 35.75 -1.75"/>
<polygon points="35 2 34.75 1.75 34.25 1.75 34 2 34.25 2.25 34.75 2.25"/>
<polygon points="34 -1 33.75 -1.25 32.25 -1.25 32 -1 32.25 -0.75 33.75 -0.75"/>
<polygon points="39 -1 38.75 -1.25 38.25 -1.25 38 -1 38.25 -0.75 38.75 -0.75"/>
<polygon points="38 1 37.75 0.75 36.25 0.75 36 1 36.25 1.25 37.75 1.25"/>
<polygon points="23 -1 22.75 -1.25 22.25 -1.25 22 -1 22.25 -0.75 22.75 -0.75"/>
<polygon points="12 -2 11.75 -2.25 11.25 -2.25 11 -2 11.25 -1.75 11.75 -1.75"/>
<polygon points="41 1 40.75 0.75 39.25 0.75 39 1 39.25 1.25 40.75 1.25"/>
<polygon points="21 2 20.75 1.75 20.25 1.75 20 2 20.25 2.25 20.75 2.25"/>
<polygon points="31 0 30.75 -0.25 28.25 -0.25 28 0 28.25 0.25 30.75 0.25"/>
<polygon points="28 0 27.75 -0.25 25.25 -0.25 25 0 25.25 0.25 27.75 0.25"/>
<polygon points="13 -1 12.75 -1.25 12.25 -1.25 12 -1 12.25 -0.75 12.75 -0.75"/>
<polygon points="23 -1 23.25 -0.75 22.75 -0.75"/>
<polygon points="34 -2 33.75 -2.25 34.25 -2.25"/>
<polygon points="41 2 41.25 2.25 40.75 2.25"/>
<polygon points="38 1 38.25 1.25 37.75 1.25"/>
<polygon points="20 -2 19.75 -2.25 20.25 -2.25"/>
<polygon points="15 1 14.75 0.75 15.25 0.75"/>
<polygon points="25 1 25.25 1.25 24.75 1.25"/>
<polygon points="26 -2 25.75 -2.25 26.25 -2.25"/>
<polygon points="27 2 27.25 2.25 26.75 2.25"/>
<polygon points="32 2 32.25 2.25 31.75 2.25"/>
<polygon points="4 0 4.25 0.25 3.75 0.25"/>
<polygon points="8 -2 7.75 -2.25 8.25 -2.25"/>
<polygon points="21 -2 20.75 -2.25 21.25 -2.25"/>
<polygon points="24 1 24.25 1.25 23.75 1.25"/>
<polygon points="41 -2 40.75 -2.25 41.25 -2.25"/>
<polygon points="18 -1 17.75 -1.25 18.25 -1.25"/>
<polygon points="1 1 0.75 0.75 1.25 0.75"/>
<polygon points="3 2 3.25 2.25 2.75 2.25"/>
<polygon points="27 1 26.75 0.75 27.25 0.75"/>
<polygon points="8 2 8.25 2.25 7.75 2.25"/>
<polygon points="20 -1 20.25 -0.75 19.75 -0.75"/>
<polygon points="11 0 10.75 -0.25 11.25 -0.25"/>
<polygon points="42 0 42.25 0.25 41.75 0.25"/>
<polygon points="14 2 14.25 2.25 13.75 2.25"/>
<polygon points="42 -2 41.75 -2.25 42.25 -2.25"/>
<polygon points="3 1 2.75 0.75 3.25 0.75"/>
<polygon points="6 -2 5.75 -2.25 6.25 -2.25"/>
<polygon points="29 1 28.75 0.75 29.25 0.75"/>
<polygon points="31 2 31.25 2.25 30.75 2.25"/>
<polygon points="36 2 36.25 2.25 35.75 2.25"/>
<polygon points="18 0 18.25 0.25 17.75 0.25"/>
<polygon points="39 0 38.75 -0.25 39.25 -0.25"/>
<polygon points="27 -2 26.75 -2.25 27.25 -2.25"/>
<polygon points="21 2 21.25 2.25 20.75 2.25"/>
<polygon points="2 1 1.75 0.75 2.25 0.75"/>
<polygon points="40 -2 39.75 -2.25 40.25 -2.25"/>
<polygon points="7 -2 6.75 -2.25 7.25 -2.25"/>
<polygon points="5 1 4.75 0.75 5.25 0.75"/>
<polygon points="6 -1 6.25 -0.75 5.75 -0.75"/>
<polygon points="4 -1 3.75 -1.25 4.25 -1.25"/>
<polygon points="7 2 7.25 2.25 6.75 2.25"/>
<polygon points="31 1 30.75 0.75 31.25 0.75"/>
<polygon points="41 1 40.75 0.75 41.25 0.75"/>
<polygon points="1 -2 0.75 -2.25 1.25 -2.25"/>
<polygon points="39 -2 38.75 -2.25 39.25 -2.25"/>
<polygon points="25 0 24.75 -0.25 25.25 -0.25"/>
<polygon points="41 -1 41.25 -0.75 40.75 -0.75"/>
<polygon points="2 2 2.25 2.25 1.75 2.25"/>
<polygon points="31 -1 30.75 -1.25 31.25 -1.25"/>
<polygon points="4 1 3.75 0.75 4.25 0.75"/>
<polygon points="33 2 33.25 2.25 32.75 2.25"/>
<polygon points="30 1 29.75 0.75 30.25 0.75"/>
<polygon points="28 -2 27.75 -2.25 28.25 -2.25"/>
<polygon points="24 -2 23.75 -2.25 24.25 -2.25"/>
<polygon points="17 1 16.75 0.75 17.25 0.75"/>
<polygon points="13 -1 13.25 -0.75 12.75 -0.75"/>
<polygon points="19 2 19.25 2.25 18.75 2.25"/>
<polygon points="32 0 32.25 0.25 31.75 0.25"/>
<polygon points="29 -2 28.75 -2.25 29.25 -2.25"/>
<polygon points="6 1 5.75 0.75 6.25 0.75"/>
<polygon points="30 2 30.25 2.25 29.75 2.25"/>
<polygon points="29 2 29.25 2.25 28.75 2.25"/>
<polygon points="3 -1 2.75 -1.25 3.25 -1.25"/>
<polygon points="36 -1 36.25 -0.75 35.75 -0.75"/>
<polygon points="16 1 15.75 0.75 16.25 0.75"/>
<polygon points="26 -1 26.25 -0.75 25.75 -0.75"/>
<polygon points="9 -2 8.75 -2.25 9.25 -2.25"/>
<polygon points="19 1 18.75 0.75 19.25 0.75"/>
<polygon points="0 2 0.25 2.25 -0.25 2.25"/>
<polygon points="23 -2 22.75 -2.25 23.25 -2.25"/>
<polygon points="3 0 3.25 0.25 2.75 0.25"/>
<polygon points="6 2 6.25 2.25 5.75 2.25"/>
<polygon points="27 -1 27.25 -0.75 26.75 -0.75"/>
<polygon points="1 -1 1.25 -0.75 0.75 -0.75"/>
<polygon points="18 1 17.75 0.75 18.25 0.75"/>
<polygon points="24 -1 24.25 -0.75 23.75 -0.75"/>
<polygon points="14 -2 13.75 -2.25 14.25 -2.25"/>
<polygon points="28 2 28.25 2.25 27.75 2.25"/>
<polygon points="10 0 9.75 -0.25 10.25 -0.25"/>
<polygon points="22 -2 21.75 -2.25 22.25 -2.25"/>
<polygon points="31 0 31.25 0.25 30.75 0.25"/>
<polygon points="13 2 13.25 2.25 12.75 2.25"/>
<polygon points="18 2 18.25 2.25 17.75 2.25"/>
<polygon points="17 -1 16.75 -1.25 17.25 -1.25"/>
<polygon points="15 -1 15.25 -0.75 14.75 -0.75"/>
<polygon points="20 1 19.75 0.75 20.25 0.75"/>
<polygon points="38 -2 37.75 -2.25 38.25 -2.25"/>
<polygon points="12 -2 11.75 -2.25 12.25 -2.25"/>
<polygon points="25 -2 24.75 -2.25 25.25 -2.25"/>
<polygon points="4 2 4.25 2.25 3.75 2.25"/>
<polygon points="33 1 32.75 0.75 33.25 0.75"/>
<polygon points="35 2 35.25 2.25 34.75 2.25"/>
<polygon points="40 -1 40.25 -0.75 39.75 -0.75"/>
<polygon points="17 0 17.25 0.25 16.75 0.25"/>
<polygon points="10 -1 10.25 -0.75 9.75 -0.75"/>
<polygon points="38 0 37.75 -0.25 38.25 -0.25"/>
<polygon points="29 -1 29.25 -0.75 28.75 -0.75"/>
<polygon points="39 -1 39.25 -0.75 38.75 -0.75"/>
<polygon points="13 -2 12.75 -2.25 13.25 -2.25"/>
<polygon points="22 1 21.75 0.75 22.25 0.75"/>
<polygon points="36 -2 35.75 -2.25 36.25 -2.25"/>
<polygon points="32 1 31.75 0.75 32.25 0.75"/>
<polygon points="10 -2 9.75 -2.25 10.25 -2.25"/>
<polygon points="37 -2 36.75 -2.25 37.25 -2.25"/>
<polygon points="16 2 16.25 2.25 15.75 2.25"/>
<polygon points="17 2 17.25 2.25 16.75 2.25"/>
<polygon points="25 -1 25.25 -0.75 24.75 -0.75"/>
<polygon points="24 0 23.75 -0.25 24.25 -0.25"/>
<polygon points="1 2 1.25 2.25 0.75 2.25"/>
<polygon points="22 2 22.25 2.25 21.75 2.25"/>
<polygon points="11 -1 11.25 -0.75 10.75 -0.75"/>
<polygon points="8 1 7.75 0.75 8.25 0.75"/>
<polygon points="34 -1 34.25 -0.75 33.75 -0.75"/>
<polygon points="34 1 33.75 0.75 34.25 0.75"/>
<polygon points="8 -1 8.25 -0.75 7.75 -0.75"/>
<polygon points="11 1 11.25 1.25 10.75 1.25"/>
<polygon points="15 -2 14.75 -2.25 15.25 -2.25"/>
<polygon points="37 -1 37.25 -0.75 36.75 -0.75"/>
<polygon points="0 0 -0.25 -0.25 0.25 -0.25"/>
<polygon points="35 -2 34.75 -2.25 35.25 -2.25"/>
<polygon points="9 -1 9.25 -0.75 8.75 -0.75"/>
<polygon points="10 1 10.25 1.25 9.75 1.25"/>
<polygon points="34 2 34.25 2.25 33.75 2.25"/>
<polygon points="32 -1 31.75 -1.25 32.25 -1.25"/>
<polygon points="38 -1 38.25 -0.75 37.75 -0.75"/>
<polygon points="36 1 35.75 0.75 36.25 0.75"/>
<polygon points="22 -1 22.25 -0.75 21.75 -0.75"/>
<polygon points="13 1 12.75 0.75 13.25 0.75"/>
<polygon points="11 -2 10.75 -2.25 11.25 -2.25"/>
<polygon points="15 2 15.25 2.25 14.75 2.25"/>
<polygon points="39 1 39.25 1.25 38.75 1.25"/>
<polygon points="20 2 20.25 2.25 19.75 2.25"/>
<polygon points="5 2 5.25 2.25 4.75 2.25"/>
<polygon points="12 -1 12.25 -0.75 11.75 -0.75"/>
</g>
</g>
</svg>
