<?xml version="1.0" encoding="UTF-8" standalone="no"?>
<!-- Created with Inkscape (http://www.inkscape.org/) -->
<svg
   xmlns:dc="http://purl.org/dc/elements/1.1/"
   xmlns:cc="http://creativecommons.org/ns#"
   xmlns:rdf="http://www.w3.org/1999/02/22-rdf-syntax-ns#"
   xmlns:svg="http://www.w3.org/2000/svg"
   xmlns="http://www.w3.org/2000/svg"
   xmlns:sodipodi="http://sodipodi.sourceforge.net/DTD/sodipodi-0.dtd"
   xmlns:inkscape="http://www.inkscape.org/namespaces/inkscape"
   width="990"
   height="765"
   id="svg2"
   sodipodi:version="0.32"
   inkscape:version="0.46"
   sodipodi:docname="sage-private-marketing-03.svg"
   inkscape:output_extension="org.inkscape.output.svg.inkscape"
   version="1.0"
   inkscape:export-filename="/users/schilly/Dokumente/sage/marketing/viral-posters/sage-private-marketing-03.png"
   inkscape:export-xdpi="150"
   inkscape:export-ydpi="150">
  <defs
     id="defs4">
    <inkscape:perspective
       sodipodi:type="inkscape:persp3d"
       inkscape:vp_x="0 : 526.18109 : 1"
       inkscape:vp_y="0 : 1000 : 0"
       inkscape:vp_z="744.09448 : 526.18109 : 1"
       inkscape:persp3d-origin="372.04724 : 350.78739 : 1"
       id="perspective10" />
  </defs>
  <sodipodi:namedview
     id="base"
     pagecolor="#ffffff"
     bordercolor="#666666"
     borderopacity="1.0"
     gridtolerance="10000"
     guidetolerance="10"
     objecttolerance="10"
     inkscape:pageopacity="1"
     inkscape:pageshadow="2"
     inkscape:zoom="0.7"
     inkscape:cx="393.92355"
     inkscape:cy="371.61657"
     inkscape:document-units="px"
     inkscape:current-layer="layer1"
     showgrid="false"
     inkscape:window-width="1280"
     inkscape:window-height="968"
     inkscape:window-x="-5"
     inkscape:window-y="-3"
     units="in" />
  <metadata
     id="metadata7">
    <rdf:RDF>
      <cc:Work
         rdf:about="">
        <dc:format>image/svg+xml</dc:format>
        <dc:type
           rdf:resource="http://purl.org/dc/dcmitype/StillImage" />
      </cc:Work>
    </rdf:RDF>
  </metadata>
  <g
     inkscape:label="Layer 1"
     inkscape:groupmode="layer"
     id="layer1">
    <text
       xml:space="preserve"
       style="font-size:56px;font-style:normal;font-variant:normal;font-weight:bold;font-stretch:normal;text-align:start;line-height:170.00000477%;writing-mode:lr-tb;text-anchor:start;fill:#000000;fill-opacity:1;stroke:none;stroke-width:1px;stroke-linecap:butt;stroke-linejoin:miter;stroke-opacity:1;font-family:Bitstream Vera Sans Mono;-inkscape-font-specification:Bitstream Vera Sans Mono Bold"
       x="59.099609"
       y="117.77695"
       id="text2403"
       sodipodi:linespacing="170%"><tspan
         sodipodi:role="line"
         x="59.099609"
         y="117.77695"
         id="tspan4810">I want to see, retrace and</tspan><tspan
         sodipodi:role="line"
         x="59.099609"
         y="212.97694"
         id="tspan3497">comprehend</tspan><tspan
         sodipodi:role="line"
         x="59.099609"
         y="308.17694"
         id="tspan4802">what my</tspan><tspan
         sodipodi:role="line"
         x="59.099609"
         y="403.37695"
         id="tspan4806">math</tspan><tspan
         sodipodi:role="line"
         x="59.099609"
         y="498.57693"
         id="tspan2396">software</tspan><tspan
         sodipodi:role="line"
         x="59.099609"
         y="593.77698"
         id="tspan2487">does on</tspan><tspan
         sodipodi:role="line"
         x="59.099609"
         y="688.97699"
         id="tspan4798">the inside.</tspan></text>
    <g
       id="g4287"
       transform="translate(-3.4163038,21.98663)">
      <g
         transform="matrix(1.1821429,0,0,1.1821429,-89.527593,133.05102)"
         id="g4937">
        <rect
           inkscape:export-ydpi="90"
           inkscape:export-xdpi="90"
           style="opacity:1;fill:#000000;fill-opacity:1;stroke:none;stroke-width:2;stroke-linecap:square;stroke-linejoin:round;stroke-miterlimit:4;stroke-dasharray:none;stroke-dashoffset:0;stroke-opacity:1"
           id="rect3959"
           width="400"
           height="399.99997"
           x="467.14285"
           y="2.8571563"
           rx="21.839746"
           ry="21.839746" />
        <g
           transform="matrix(1.5498684,0,0,1.5498684,-1755.9953,-3467.4682)"
           id="g3961">
          <path
             sodipodi:type="arc"
             style="opacity:0.98999999;fill:#ffffff;fill-opacity:1;stroke:none;stroke-width:1;stroke-linecap:square;stroke-linejoin:round;stroke-miterlimit:4;stroke-dasharray:none;stroke-dashoffset:0;stroke-opacity:1"
             id="path3963"
             sodipodi:cx="1324.929"
             sodipodi:cy="1792.4095"
             sodipodi:rx="7.3256478"
             sodipodi:ry="7.3256478"
             d="M 1332.2546,1792.4095 A 7.3256478,7.3256478 0 1 1 1317.6033,1792.4095 A 7.3256478,7.3256478 0 1 1 1332.2546,1792.4095 z"
             transform="matrix(0.9672595,0,0,0.9672595,235.69886,548.04605)" />
          <path
             transform="matrix(0.9672595,0,0,0.9672595,308.74604,539.35166)"
             d="M 1332.2546,1792.4095 A 7.3256478,7.3256478 0 1 1 1317.6033,1792.4095 A 7.3256478,7.3256478 0 1 1 1332.2546,1792.4095 z"
             sodipodi:ry="7.3256478"
             sodipodi:rx="7.3256478"
             sodipodi:cy="1792.4095"
             sodipodi:cx="1324.929"
             id="path3965"
             style="opacity:0.98999999;fill:#ffffff;fill-opacity:1;stroke:none;stroke-width:1;stroke-linecap:square;stroke-linejoin:round;stroke-miterlimit:4;stroke-dasharray:none;stroke-dashoffset:0;stroke-opacity:1"
             sodipodi:type="arc" />
          <path
             sodipodi:type="arc"
             style="opacity:0.98999999;fill:#ffffff;fill-opacity:1;stroke:none;stroke-width:1;stroke-linecap:square;stroke-linejoin:round;stroke-miterlimit:4;stroke-dasharray:none;stroke-dashoffset:0;stroke-opacity:1"
             id="path3967"
             sodipodi:cx="1324.929"
             sodipodi:cy="1792.4095"
             sodipodi:rx="7.3256478"
             sodipodi:ry="7.3256478"
             d="M 1332.2546,1792.4095 A 7.3256478,7.3256478 0 1 1 1317.6033,1792.4095 A 7.3256478,7.3256478 0 1 1 1332.2546,1792.4095 z"
             transform="matrix(1.2053547,0,0,1.2053547,-25.196551,182.19849)" />
          <path
             sodipodi:type="arc"
             style="opacity:0.98999999;fill:#ffffff;fill-opacity:1;stroke:none;stroke-width:1;stroke-linecap:square;stroke-linejoin:round;stroke-miterlimit:4;stroke-dasharray:none;stroke-dashoffset:0;stroke-opacity:1"
             id="path3969"
             sodipodi:cx="1324.929"
             sodipodi:cy="1792.4095"
             sodipodi:rx="7.3256478"
             sodipodi:ry="7.3256478"
             d="M 1332.2546,1792.4095 A 7.3256478,7.3256478 0 1 1 1317.6033,1792.4095 A 7.3256478,7.3256478 0 1 1 1332.2546,1792.4095 z"
             transform="matrix(0.7953719,0,0,0.7953719,449.34462,925.45441)" />
          <path
             transform="matrix(0.7953719,0,0,0.7953719,499.30379,973.24771)"
             d="M 1332.2546,1792.4095 A 7.3256478,7.3256478 0 1 1 1317.6033,1792.4095 A 7.3256478,7.3256478 0 1 1 1332.2546,1792.4095 z"
             sodipodi:ry="7.3256478"
             sodipodi:rx="7.3256478"
             sodipodi:cy="1792.4095"
             sodipodi:cx="1324.929"
             id="path3971"
             style="opacity:0.98999999;fill:#ffffff;fill-opacity:1;stroke:none;stroke-width:1;stroke-linecap:square;stroke-linejoin:round;stroke-miterlimit:4;stroke-dasharray:none;stroke-dashoffset:0;stroke-opacity:1"
             sodipodi:type="arc" />
          <path
             sodipodi:type="arc"
             style="opacity:0.98999999;fill:#ffffff;fill-opacity:1;stroke:none;stroke-width:1;stroke-linecap:square;stroke-linejoin:round;stroke-miterlimit:4;stroke-dasharray:none;stroke-dashoffset:0;stroke-opacity:1"
             id="path3973"
             sodipodi:cx="1324.929"
             sodipodi:cy="1792.4095"
             sodipodi:rx="7.3256478"
             sodipodi:ry="7.3256478"
             d="M 1332.2546,1792.4095 A 7.3256478,7.3256478 0 1 1 1317.6033,1792.4095 A 7.3256478,7.3256478 0 1 1 1332.2546,1792.4095 z"
             transform="matrix(0.7953719,0,0,0.7953719,556.29908,956.69427)" />
          <path
             transform="matrix(0.7953719,0,0,0.7953719,581.00221,902.90894)"
             d="M 1332.2546,1792.4095 A 7.3256478,7.3256478 0 1 1 1317.6033,1792.4095 A 7.3256478,7.3256478 0 1 1 1332.2546,1792.4095 z"
             sodipodi:ry="7.3256478"
             sodipodi:rx="7.3256478"
             sodipodi:cy="1792.4095"
             sodipodi:cx="1324.929"
             id="path3975"
             style="opacity:0.98999999;fill:#ffffff;fill-opacity:1;stroke:none;stroke-width:1;stroke-linecap:square;stroke-linejoin:round;stroke-miterlimit:4;stroke-dasharray:none;stroke-dashoffset:0;stroke-opacity:1"
             sodipodi:type="arc" />
          <path
             sodipodi:type="arc"
             style="opacity:0.98999999;fill:#ffffff;fill-opacity:1;stroke:none;stroke-width:1;stroke-linecap:square;stroke-linejoin:round;stroke-miterlimit:4;stroke-dasharray:none;stroke-dashoffset:0;stroke-opacity:1"
             id="path3977"
             sodipodi:cx="1324.929"
             sodipodi:cy="1792.4095"
             sodipodi:rx="7.3256478"
             sodipodi:ry="7.3256478"
             d="M 1332.2546,1792.4095 A 7.3256478,7.3256478 0 1 1 1317.6033,1792.4095 A 7.3256478,7.3256478 0 1 1 1332.2546,1792.4095 z"
             transform="matrix(0.6234843,0,0,0.6234843,800.65848,1180.6657)" />
          <path
             transform="matrix(0.6234843,0,0,0.6234843,766.33259,1139.9519)"
             d="M 1332.2546,1792.4095 A 7.3256478,7.3256478 0 1 1 1317.6033,1792.4095 A 7.3256478,7.3256478 0 1 1 1332.2546,1792.4095 z"
             sodipodi:ry="7.3256478"
             sodipodi:rx="7.3256478"
             sodipodi:cy="1792.4095"
             sodipodi:cx="1324.929"
             id="path3979"
             style="opacity:0.98999999;fill:#ffffff;fill-opacity:1;stroke:none;stroke-width:1;stroke-linecap:square;stroke-linejoin:round;stroke-miterlimit:4;stroke-dasharray:none;stroke-dashoffset:0;stroke-opacity:1"
             sodipodi:type="arc" />
          <path
             sodipodi:type="arc"
             style="opacity:0.98999999;fill:#ffffff;fill-opacity:1;stroke:none;stroke-width:1;stroke-linecap:square;stroke-linejoin:round;stroke-miterlimit:4;stroke-dasharray:none;stroke-dashoffset:0;stroke-opacity:1"
             id="path3981"
             sodipodi:cx="1324.929"
             sodipodi:cy="1792.4095"
             sodipodi:rx="7.3256478"
             sodipodi:ry="7.3256478"
             d="M 1332.2546,1792.4095 A 7.3256478,7.3256478 0 1 1 1317.6033,1792.4095 A 7.3256478,7.3256478 0 1 1 1332.2546,1792.4095 z"
             transform="matrix(0.6234843,0,0,0.6234843,664.75027,1230.1938)" />
          <path
             transform="matrix(0.6234843,0,0,0.6234843,701.58781,1267.5497)"
             d="M 1332.2546,1792.4095 A 7.3256478,7.3256478 0 1 1 1317.6033,1792.4095 A 7.3256478,7.3256478 0 1 1 1332.2546,1792.4095 z"
             sodipodi:ry="7.3256478"
             sodipodi:rx="7.3256478"
             sodipodi:cy="1792.4095"
             sodipodi:cx="1324.929"
             id="path3983"
             style="opacity:0.98999999;fill:#ffffff;fill-opacity:1;stroke:none;stroke-width:1;stroke-linecap:square;stroke-linejoin:round;stroke-miterlimit:4;stroke-dasharray:none;stroke-dashoffset:0;stroke-opacity:1"
             sodipodi:type="arc" />
          <path
             transform="matrix(0.7953719,0,0,0.7953719,440.41431,869.81028)"
             d="M 1332.2546,1792.4095 A 7.3256478,7.3256478 0 1 1 1317.6033,1792.4095 A 7.3256478,7.3256478 0 1 1 1332.2546,1792.4095 z"
             sodipodi:ry="7.3256478"
             sodipodi:rx="7.3256478"
             sodipodi:cy="1792.4095"
             sodipodi:cx="1324.929"
             id="path3985"
             style="opacity:0.98999999;fill:#ffffff;fill-opacity:1;stroke:none;stroke-width:1;stroke-linecap:square;stroke-linejoin:round;stroke-miterlimit:4;stroke-dasharray:none;stroke-dashoffset:0;stroke-opacity:1"
             sodipodi:type="arc" />
          <path
             sodipodi:type="arc"
             style="opacity:0.98999999;fill:#ffffff;fill-opacity:1;stroke:none;stroke-width:1;stroke-linecap:square;stroke-linejoin:round;stroke-miterlimit:4;stroke-dasharray:none;stroke-dashoffset:0;stroke-opacity:1"
             id="path3987"
             sodipodi:cx="1324.929"
             sodipodi:cy="1792.4095"
             sodipodi:rx="7.3256478"
             sodipodi:ry="7.3256478"
             d="M 1332.2546,1792.4095 A 7.3256478,7.3256478 0 1 1 1317.6033,1792.4095 A 7.3256478,7.3256478 0 1 1 1332.2546,1792.4095 z"
             transform="matrix(0.7953719,0,0,0.7953719,484.50773,829.39633)" />
          <path
             sodipodi:type="arc"
             style="opacity:0.98999999;fill:#ffffff;fill-opacity:1;stroke:none;stroke-width:1;stroke-linecap:square;stroke-linejoin:round;stroke-miterlimit:4;stroke-dasharray:none;stroke-dashoffset:0;stroke-opacity:1"
             id="path3989"
             sodipodi:cx="1324.929"
             sodipodi:cy="1792.4095"
             sodipodi:rx="7.3256478"
             sodipodi:ry="7.3256478"
             d="M 1332.2546,1792.4095 A 7.3256478,7.3256478 0 1 1 1317.6033,1792.4095 A 7.3256478,7.3256478 0 1 1 1332.2546,1792.4095 z"
             transform="matrix(0.6234843,0,0,0.6234843,699.00639,1196.6154)" />
          <path
             transform="matrix(0.6234843,0,0,0.6234843,749.0301,1256.3969)"
             d="M 1332.2546,1792.4095 A 7.3256478,7.3256478 0 1 1 1317.6033,1792.4095 A 7.3256478,7.3256478 0 1 1 1332.2546,1792.4095 z"
             sodipodi:ry="7.3256478"
             sodipodi:rx="7.3256478"
             sodipodi:cy="1792.4095"
             sodipodi:cx="1324.929"
             id="path3991"
             style="opacity:0.98999999;fill:#ffffff;fill-opacity:1;stroke:none;stroke-width:1;stroke-linecap:square;stroke-linejoin:round;stroke-miterlimit:4;stroke-dasharray:none;stroke-dashoffset:0;stroke-opacity:1"
             sodipodi:type="arc" />
          <path
             style="fill:none;fill-rule:evenodd;stroke:#ffffff;stroke-width:8;stroke-linecap:butt;stroke-linejoin:miter;stroke-miterlimit:4;stroke-dasharray:none;stroke-opacity:1"
             d="M 1590.0065,2271.6035 L 1571.3784,2344.2766"
             id="path3993" />
          <path
             style="fill:none;fill-rule:evenodd;stroke:#ffffff;stroke-width:8;stroke-linecap:butt;stroke-linejoin:miter;stroke-miterlimit:4;stroke-dasharray:none;stroke-opacity:1"
             d="M 1589.0995,2273.5223 L 1516.5407,2281.9768"
             id="path3995" />
          <path
             style="fill:none;fill-rule:evenodd;stroke:#ffffff;stroke-width:8;stroke-linecap:butt;stroke-linejoin:miter;stroke-miterlimit:4;stroke-dasharray:none;stroke-opacity:1"
             d="M 1571.3087,2343.4372 L 1516.6105,2281.5571"
             id="path3997" />
          <path
             style="fill:none;fill-rule:evenodd;stroke:#ffffff;stroke-width:6;stroke-linecap:butt;stroke-linejoin:miter;stroke-miterlimit:4;stroke-dasharray:none;stroke-opacity:1"
             d="M 1571.3087,2343.8569 L 1553.2387,2399.8009"
             id="path3999" />
          <path
             style="fill:none;fill-rule:evenodd;stroke:#ffffff;stroke-width:4;stroke-linecap:butt;stroke-linejoin:miter;stroke-miterlimit:4;stroke-dasharray:none;stroke-opacity:1"
             d="M 1516.4012,2281.3172 L 1537.4014,2256.9729"
             id="path4001" />
          <path
             style="fill:none;fill-rule:evenodd;stroke:#ffffff;stroke-width:4;stroke-linecap:butt;stroke-linejoin:miter;stroke-miterlimit:4;stroke-dasharray:none;stroke-opacity:1"
             d="M 1493.9359,2295.4681 L 1515.7035,2281.1374"
             id="path4003" />
          <path
             style="fill:none;fill-rule:evenodd;stroke:#ffffff;stroke-width:4;stroke-linecap:butt;stroke-linejoin:miter;stroke-miterlimit:4;stroke-dasharray:none;stroke-opacity:1"
             d="M 1503.0057,2350.6326 L 1516.4012,2280.6577"
             id="path4005" />
          <path
             style="fill:none;fill-rule:evenodd;stroke:#ffffff;stroke-width:6;stroke-linecap:butt;stroke-linejoin:miter;stroke-miterlimit:4;stroke-dasharray:none;stroke-opacity:1"
             d="M 1552.1922,2398.5417 L 1502.6569,2351.9517"
             id="path4007" />
          <path
             style="fill:none;fill-rule:evenodd;stroke:#ffffff;stroke-width:6;stroke-linecap:butt;stroke-linejoin:miter;stroke-miterlimit:4;stroke-dasharray:none;stroke-opacity:1"
             d="M 1610.0997,2381.3328 L 1551.9829,2398.3018"
             id="path4009" />
          <path
             style="fill:none;fill-rule:evenodd;stroke:#ffffff;stroke-width:6;stroke-linecap:butt;stroke-linejoin:miter;stroke-miterlimit:4;stroke-dasharray:none;stroke-opacity:1"
             d="M 1634.2395,2328.3869 L 1610.0997,2381.5126"
             id="path4011" />
          <path
             style="fill:none;fill-rule:evenodd;stroke:#ffffff;stroke-width:6;stroke-linecap:butt;stroke-linejoin:miter;stroke-miterlimit:4;stroke-dasharray:none;stroke-opacity:1"
             d="M 1570.5412,2343.4372 L 1633.4023,2328.8066"
             id="path4013" />
          <path
             style="fill:none;fill-rule:evenodd;stroke:#ffffff;stroke-width:6;stroke-linecap:butt;stroke-linejoin:miter;stroke-miterlimit:4;stroke-dasharray:none;stroke-opacity:1"
             d="M 1590.1461,2273.0426 L 1633.2627,2328.207"
             id="path4015" />
          <path
             style="fill:none;fill-rule:evenodd;stroke:#ffffff;stroke-width:6;stroke-linecap:butt;stroke-linejoin:miter;stroke-miterlimit:4;stroke-dasharray:none;stroke-opacity:1"
             d="M 1501.7987,2350.6326 L 1568.7761,2343.4372"
             id="path4017" />
          <path
             style="fill:none;fill-rule:evenodd;stroke:#ffffff;stroke-width:4;stroke-linecap:butt;stroke-linejoin:miter;stroke-miterlimit:4;stroke-dasharray:none;stroke-opacity:1"
             d="M 1551.4038,2398.062 L 1526.985,2384.9304"
             id="path4019" />
          <path
             style="fill:none;fill-rule:evenodd;stroke:#ffffff;stroke-width:4;stroke-linecap:butt;stroke-linejoin:miter;stroke-miterlimit:4;stroke-dasharray:none;stroke-opacity:1"
             d="M 1489.38,2347.2747 L 1525.7292,2384.5707"
             id="path4021" />
          <path
             style="fill:none;fill-rule:evenodd;stroke:#ffffff;stroke-width:4;stroke-linecap:butt;stroke-linejoin:miter;stroke-miterlimit:4;stroke-dasharray:none;stroke-opacity:1"
             d="M 1493.2173,2295.9478 L 1490.4963,2347.2747"
             id="path4023" />
          <path
             style="fill:none;fill-rule:evenodd;stroke:#ffffff;stroke-width:4;stroke-linecap:butt;stroke-linejoin:miter;stroke-miterlimit:4;stroke-dasharray:none;stroke-opacity:1"
             d="M 1537.3805,2254.8743 L 1591.4507,2256.7331"
             id="path4025" />
          <path
             style="fill:none;fill-rule:evenodd;stroke:#ffffff;stroke-width:4;stroke-linecap:butt;stroke-linejoin:miter;stroke-miterlimit:4;stroke-dasharray:none;stroke-opacity:1"
             d="M 1627.172,2298.5261 L 1592.9158,2256.5532"
             id="path4027" />
          <path
             style="fill:none;fill-rule:evenodd;stroke:#ffffff;stroke-width:4;stroke-linecap:butt;stroke-linejoin:miter;stroke-miterlimit:4;stroke-dasharray:none;stroke-opacity:1"
             d="M 1635.4744,2328.207 L 1626.4743,2298.1064"
             id="path4029" />
          <path
             style="fill:none;fill-rule:evenodd;stroke:#ffffff;stroke-width:4;stroke-linecap:butt;stroke-linejoin:miter;stroke-miterlimit:4;stroke-dasharray:none;stroke-opacity:1"
             d="M 1589.4972,2272.2631 L 1592.7065,2256.9729"
             id="path4031" />
          <path
             style="fill:none;fill-rule:evenodd;stroke:#ffffff;stroke-width:4;stroke-linecap:butt;stroke-linejoin:miter;stroke-miterlimit:4;stroke-dasharray:none;stroke-opacity:1"
             d="M 1503.6825,2351.2305 L 1489.5196,2348.5322"
             id="path4033" />
          <path
             style="fill:none;fill-rule:evenodd;stroke:#ffffff;stroke-width:2;stroke-linecap:butt;stroke-linejoin:miter;stroke-miterlimit:4;stroke-dasharray:none;stroke-opacity:1"
             d="M 1526.985,2385.4084 L 1573.7296,2373.9558"
             id="path4035" />
          <path
             style="fill:none;fill-rule:evenodd;stroke:#ffffff;stroke-width:2;stroke-linecap:butt;stroke-linejoin:miter;stroke-miterlimit:4;stroke-dasharray:none;stroke-opacity:1"
             d="M 1574.9157,2373.8958 L 1608.5439,2381.1512"
             id="path4037" />
          <path
             style="fill:none;fill-rule:evenodd;stroke:#ffffff;stroke-width:2;stroke-linecap:butt;stroke-linejoin:miter;stroke-miterlimit:4;stroke-dasharray:none;stroke-opacity:1"
             d="M 1492.5121,2295.941 L 1553.7151,2289.0932"
             id="path4039" />
          <path
             style="fill:none;fill-rule:evenodd;stroke:#ffffff;stroke-width:2;stroke-linecap:butt;stroke-linejoin:miter;stroke-miterlimit:4;stroke-dasharray:none;stroke-opacity:1"
             d="M 1553.7151,2287.7387 L 1590.1392,2274.1935"
             id="path4041" />
          <path
             sodipodi:type="arc"
             style="opacity:0.98999999;fill:#ffffff;fill-opacity:1;stroke:none;stroke-width:1;stroke-linecap:square;stroke-linejoin:round;stroke-miterlimit:4;stroke-dasharray:none;stroke-dashoffset:0;stroke-opacity:1"
             id="path4043"
             sodipodi:cx="1324.929"
             sodipodi:cy="1792.4095"
             sodipodi:rx="7.3256478"
             sodipodi:ry="7.3256478"
             d="M 1332.2546,1792.4095 A 7.3256478,7.3256478 0 1 1 1317.6033,1792.4095 A 7.3256478,7.3256478 0 1 1 1332.2546,1792.4095 z"
             transform="matrix(0.6234843,0,0,0.6234843,726.86911,1170.9368)" />
          <path
             transform="matrix(0.5833906,0,0,0.5833906,837.2333,1298.2147)"
             d="M 1332.2546,1792.4095 A 7.3256478,7.3256478 0 1 1 1317.6033,1792.4095 A 7.3256478,7.3256478 0 1 1 1332.2546,1792.4095 z"
             sodipodi:ry="7.3256478"
             sodipodi:rx="7.3256478"
             sodipodi:cy="1792.4095"
             sodipodi:cx="1324.929"
             id="path4045"
             style="opacity:0.98999999;fill:#ffffff;fill-opacity:1;stroke:none;stroke-width:1;stroke-linecap:square;stroke-linejoin:round;stroke-miterlimit:4;stroke-dasharray:none;stroke-dashoffset:0;stroke-opacity:1"
             sodipodi:type="arc" />
          <path
             style="fill:none;fill-rule:evenodd;stroke:#ffffff;stroke-width:2;stroke-linecap:butt;stroke-linejoin:miter;stroke-miterlimit:4;stroke-dasharray:none;stroke-opacity:1"
             d="M 1609.6576,2343.739 L 1626.0616,2297.6751"
             id="path4047" />
          <path
             style="fill:none;fill-rule:evenodd;stroke:#ffffff;stroke-width:2;stroke-linecap:butt;stroke-linejoin:miter;stroke-miterlimit:4;stroke-dasharray:none;stroke-opacity:1"
             d="M 1609.4298,2381.481 L 1609.9994,2342.711"
             id="path4049" />
          <path
             id="path4051"
             d="M 1502.1919,2350.0723 L 1525.6258,2314.115"
             style="fill:none;fill-rule:evenodd;stroke:#ffffff;stroke-width:2;stroke-linecap:butt;stroke-linejoin:miter;stroke-miterlimit:4;stroke-dasharray:none;stroke-opacity:1" />
          <path
             id="path4053"
             d="M 1537.8572,2255.3651 L 1524.94,2314.115"
             style="fill:none;fill-rule:evenodd;stroke:#ffffff;stroke-width:2;stroke-linecap:butt;stroke-linejoin:miter;stroke-miterlimit:4;stroke-dasharray:none;stroke-opacity:1" />
        </g>
        <g
           id="g4055"
           transform="matrix(1.0232715,0,0,1.0232715,143.41878,92.489445)"
           style="fill:#ffffff;fill-opacity:1;stroke:none">
          <path
             sodipodi:nodetypes="cccccccccccccccccsccscscccccc"
             id="path4057"
             d="M 350.74412,171.92007 C 350.80866,184.36951 350.57127,196.67988 350.84699,209.27014 C 350.748,211.57639 351.16299,212.81778 354.7778,213.18067 C 370.40275,213.27617 386.0326,213.12217 401.65446,213.35367 C 404.10798,213.30359 404.93339,213.81032 404.82309,216.97841 C 404.9464,224.16486 404.92124,228.49277 404.96378,234.48722 C 405.04455,236.52152 403.74099,237.29749 401.7512,237.2889 C 386.23667,237.09803 370.71233,237.26071 355.194,237.20665 C 346.55021,237.20665 337.90643,237.20665 329.26264,237.20665 C 327.35399,238.16158 327.62451,239.52605 327.57539,242.09919 C 327.62349,244.64997 327.408,246.67846 329.1084,246.97199 C 332.03634,247.55117 335.12349,247.07155 338.11494,247.2284 C 362.3172,247.20135 388.5239,247.28248 412.7234,247.18787 C 414.76661,247.28846 415.62745,246.57644 415.53837,244.03726 C 415.48532,231.18773 415.64512,219.0682 415.45771,206.23118 C 415.3741,204.23975 415.04471,203.47996 413.40102,203.19946 C 398.1409,203.19946 382.88079,203.19946 367.62067,203.19946 C 363.94919,203.41277 363.58231,203.18649 362.69471,202.23138 C 361.83959,201.31122 361.73432,200.11594 361.79937,194.10676 C 361.7059,187.48062 361.71692,189.96677 361.79937,183.34647 C 361.72534,178.22305 361.41327,176.69312 362.57357,175.24044 C 363.76225,173.75221 368.7539,174.29966 373.55236,174.32776 C 386.99856,174.28687 404.66316,174.58388 413.19269,174.32776 C 416.05864,174.2417 415.93466,172.56854 415.99734,168.86194 C 416.02616,162.92074 413.99374,163.12408 409.49293,163.27281 C 403.26806,163.29482 400.24678,163.22945 393.65605,163.27281 C 381.3366,163.27012 369.358,163.26198 356.97211,163.27281 C 353.33944,163.27678 352.67993,164.23335 351.48348,166.04431 C 350.3787,167.7342 350.82401,169.75429 350.74412,171.92007 z"
             style="fill:#ffffff;fill-opacity:1;fill-rule:evenodd;stroke:none;stroke-width:1px;stroke-linecap:butt;stroke-linejoin:miter;stroke-opacity:1" />
          <path
             sodipodi:nodetypes="cscccccccccccccccccccccsc"
             id="path4059"
             d="M 608.67243,207.19067 C 608.77362,210.86253 608.10697,212.91781 610.23319,212.91149 C 630.67767,212.85069 649.94703,213.06476 669.95597,212.91149 C 672.00801,213.0729 673.20451,211.34532 673.16407,208.99146 C 673.10012,195.15967 673.29493,181.32368 673.06123,167.49464 C 672.06895,164.98948 669.67873,162.78658 666.81628,163.29663 C 643.37982,163.24868 619.94046,163.3929 596.50582,163.22384 C 594.21481,163.76559 592.82708,166.20024 592.76744,168.47978 C 592.76525,192.56133 592.69752,216.65437 592.80127,240.7344 C 592.59022,243.24282 594.03241,245.52557 596.32426,246.52882 C 598.715,247.71642 601.40743,247.25779 604.21801,247.19538 C 633.95587,247.19538 663.69373,247.19538 693.43159,247.19538 C 695.18385,247.31365 695.97831,247.18146 696.01214,244.90273 C 696.04397,242.66783 696.08173,240.63229 696.01214,238.64957 C 696.08267,236.23503 694.00078,236.36341 692.97488,236.4328 C 666.15454,236.4328 633.3342,236.4328 606.51387,236.4328 C 604.32186,236.38628 603.34464,234.17836 603.65382,232.24236 C 603.67976,213.65001 603.60196,195.05014 603.69269,176.4625 C 603.54995,173.40054 604.91282,172.45534 607.37889,172.67468 C 624.06072,172.72428 642.966,172.57557 659.63925,172.74887 C 661.5696,172.67026 662.8738,173.87951 662.72786,175.96513 C 662.65237,183.09812 662.87922,192.69453 662.61376,199.81402 C 662.8367,202.59125 660.83127,202.46962 658.69168,202.43125 C 643.35966,202.45859 636.58897,202.48741 610.69249,202.47216 C 608.15598,202.47067 608.76057,204.98152 608.67243,207.19067 z"
             style="fill:#ffffff;fill-opacity:1;fill-rule:evenodd;stroke:none;stroke-width:1px;stroke-linecap:butt;stroke-linejoin:miter;stroke-opacity:1" />
          <path
             sodipodi:nodetypes="ccccccccccccccccscszscccscsccccscccccccccscccccccccccscc"
             d="M 501.63073,277.08557 C 501.51358,279.28458 501.28746,282.42496 504.3544,282.32512 C 529.09661,282.41074 553.85898,282.33735 578.60894,282.36181 C 581.36478,282.0752 583.39284,279.52333 582.69244,276.77838 C 582.64504,241.43602 582.78719,206.08514 582.62144,170.7481 C 582.71432,167.39025 580.99371,163.14443 577.0327,163.33891 C 560.74331,163.21591 544.41459,163.22404 528.1269,163.33891 C 523.17391,163.8944 521.7793,169.60208 519.32686,173.13324 C 514.45744,181.43641 509.79803,189.89841 504.79848,198.10316 C 502.78642,200.69963 501.3308,197.07824 500.43935,195.4691 C 494.67916,185.71842 488.8371,175.80005 482.82371,166.20874 C 480.01572,162.33646 474.98965,163.33963 470.0529,163.33891 C 456.90278,163.42123 445.42375,163.05041 432.28986,163.33891 C 429.10846,163.08443 426.61016,164.72873 426.76347,169.35696 C 426.83468,193.96204 426.51364,216.57679 426.76347,241.1758 C 427.01468,247.32548 429.93483,246.8923 434.41468,246.84874 C 452.15638,246.76475 467.15137,246.774 485.15465,246.19011 C 487.61936,246.11018 489.67669,244.3307 491.39963,240.6883 C 493.69678,236.46835 495.82322,232.83831 498.29986,228.05586 C 500.57586,223.66085 501.94363,219.34964 503.88655,219.36418 C 505.82947,219.37872 507.21592,223.70122 510.28753,229.0885 C 513.35915,234.47579 516.9547,240.50105 520.11293,244.60502 C 522.60947,246.92608 526.73663,246.13963 530.66772,246.29068 C 541.65915,246.20493 552.70752,246.58975 563.6635,246.29068 C 566.63743,246.2227 565.7548,243.44112 565.90185,241.36448 C 566.33159,235.29562 562.32496,236.53549 559.792,236.47384 C 548.12736,236.32937 530.32419,237.43502 526.07876,236.60017 C 523.91952,236.17556 521.85258,232.69551 515.96553,222.45307 C 513.35085,218.47156 512.60478,216.86755 510.02077,212.1663 C 509.27,210.84093 509.26084,209.6639 509.60365,208.15089 C 513.04905,200.84546 511.65523,204.10026 513.44007,200.55375 C 518.82361,191.42286 527.27016,176.38983 528.01542,175.19274 C 529.62532,172.6068 531.75591,173.09144 535.34173,172.98621 C 545.53267,172.96616 555.64635,172.86736 565.87033,173.04956 C 570.80919,173.03744 570.8757,174.30288 570.79699,180.30201 C 570.73546,209.58246 570.92,238.87247 570.70483,268.14694 C 569.84423,271.70692 565.21708,271.3704 562.23002,271.42886 C 542.48826,271.51322 522.73479,271.26 503.00036,271.55569 C 501.90581,273.31137 501.32263,274.98535 501.63073,277.08557 z M 436.97558,203.7813 C 436.99197,213.37478 436.92114,220.98074 436.97558,230.56644 C 436.96292,232.77252 436.69351,235.19625 438.99699,236.71726 C 440.90832,237.97933 445.33115,237.32052 447.60344,237.46661 C 458.21393,237.43132 466.83481,237.53716 477.43882,237.41377 C 478.60946,237.09451 481.533,238.04776 482.78458,236.16865 C 485.77874,232.43902 487.7917,228.0516 490.28328,223.98933 C 492.61245,220.05145 494.76481,215.98475 497.26517,212.1663 C 497.93584,210.91338 498.18971,209.47497 497.57531,208.15089 C 496.05584,205.67575 494.45052,203.46508 492.86223,200.75702 C 488.13051,192.62661 484.65216,186.64103 479.73333,178.47893 C 478.89572,177.08904 477.75988,173.21214 472.74005,173.31493 C 466.76945,173.38729 462.8322,173.24481 456.87997,173.31493 C 451.93025,173.41523 446.94512,172.86568 442.01981,173.31493 C 440.34966,173.82265 438.56884,174.84438 437.80927,176.60501 C 437.18228,178.05834 436.86134,178.70393 436.97558,183.07558 C 437.10504,190.64415 436.84612,196.21273 436.97558,203.7813 z"
             style="fill:#ffffff;fill-opacity:1;fill-rule:evenodd;stroke:none;stroke-width:1px;stroke-linecap:butt;stroke-linejoin:miter;stroke-opacity:1"
             id="path4061" />
        </g>
      </g>
      <text
         sodipodi:linespacing="125%"
         id="text4259"
         y="659.28564"
         x="470.35715"
         style="font-size:48px;font-style:normal;font-variant:normal;font-weight:normal;font-stretch:normal;text-align:start;line-height:125%;writing-mode:lr-tb;text-anchor:start;fill:#000000;fill-opacity:1;stroke:none;stroke-width:1px;stroke-linecap:butt;stroke-linejoin:miter;stroke-opacity:1;font-family:Bitstream Vera Sans Mono;-inkscape-font-specification:Bitstream Vera Sans Mono"
         xml:space="preserve"><tspan
           y="659.28564"
           x="470.35715"
           id="tspan4261"
           sodipodi:role="line">www.sagemath.org</tspan></text>
    </g>
  </g>
</svg>
