<?xml version="1.0" encoding="UTF-8" standalone="no"?>
<svg xmlns="http://www.w3.org/2000/svg" height="65.659mm" width="238.34mm" version="1.1" viewBox="23 2 180.16 49.632002">
<rect height="49.632" width="180.16" y="2" x="23" fill="#00f"/>
<g stroke-linejoin="round" transform="translate(58.498 2.5575)" stroke="#fff" stroke-width="4" fill="none">
<polyline points="55 10 38 10 38 20 53 20 53 30 28 30"/>
<polyline points="97 30 85 30 75 10 60 10 60 30 75 30 85 10 100 10 100 40 80 40"/>
<polyline points="132 30 107 30 107 10 122 10 122 20 110 20"/>
</g>
<g stroke-linejoin="round" transform="matrix(.49577 0 0 .49577 -1.4414 49.632)" stroke="#fff" stroke-linecap="round" fill="none">
<g stroke-width="4">
<path d="m103.18-53.376c10.312 0 21.543 0.70971 31.2 1.9716 9.6568 1.2619 16.969 2.9752 20.313 4.76"/>
<path d="m133.42-11.664c-1.6566-0.88397-3.7531-2.6641-6.1696-5.2387-2.4164-2.5745-5.1056-5.8931-7.9141-9.7661-2.8083-3.8731-5.6811-8.2251-8.4536-12.807s-5.3915-9.3045-7.7061-13.898"/>
<path d="m94.524-11.664c-3.3445-1.7867-4.3131-7.1867-2.6907-15.005 1.6224-7.8187 5.7072-17.432 11.345-26.707"/>
<path d="m103.18-53.376c-4.672-9.272-7.8296-17.465-8.7693-22.76-0.93973-5.2952 0.4128-7.2696 3.7587-5.4851"/>
<path d="m103.18-53.376c5.64-9.272 12.384-17.465 18.736-22.76 6.352-5.2952 11.805-7.2696 15.149-5.4851"/>
<path d="m154.69-46.643c-0.36906 7.0893-2.5292 14.055-6.2627 20.195-3.7334 6.1395-8.9099 11.239-15.007 14.783"/>
<path d="m133.42-11.664c-6.0973 3.5445-12.903 5.4112-19.731 5.4112-6.8275 0-13.439-1.8665-19.167-5.4112"/>
<path d="m94.524-11.664c-5.728-3.5467-10.374-8.6453-13.468-14.784-3.0941-6.1413-4.5291-13.107-4.16-20.195 0.36907-7.0907 2.5291-14.056 6.2624-20.195 3.7333-6.1395 8.9099-11.239 15.009-14.783"/>
<path d="m98.168-81.622c6.0973-3.5445 12.903-5.4112 19.731-5.4112 6.8275 0 13.439 1.8665 19.167 5.4112"/>
<path d="m137.06-81.622c5.7283 3.5445 10.374 8.644 13.468 14.783 3.0941 6.1395 4.5291 13.105 4.16 20.195"/>
</g>
<path d="m128.41-39.912c-2.7931 4.5933-5.8853 8.9677-9.1 12.873-3.2144 3.9053-6.4885 7.2656-9.6352 9.8885-3.1464 2.6229-6.104 4.4573-8.7035 5.3984-2.5994 0.94109-4.7901 0.97048-6.4467 0.0865" stroke-width="2"/>
<path d="m137.06-81.622c3.3445 1.7846 4.3131 7.1856 2.6907 15.005-1.6224 7.8192-5.7061 17.432-11.345 26.704" stroke-width="2"/>
</g>
</svg>
